<svg width="60" height="41.38" viewBox="0 0 289 289" fill="none" xmlns="http://www.w3.org/2000/svg">
<path d="M289 227.069C289 236.505 281.352 244.153 271.917 244.153H17.0832C7.64834 244.154 0 236.505 0 227.069V61.9304C0 52.4956 7.64834 44.8467 17.0832 44.8467H271.917C281.352 44.8467 289 52.4956 289 61.9304V227.069Z" fill="#306FC5"/>
<path opacity="0.15" d="M12.1453 227.069V61.9304C12.1453 52.4956 19.7948 44.8467 29.2296 44.8467H17.0826C7.64834 44.8467 0 52.495 0 61.9304V227.07C0 236.505 7.64834 244.154 17.0832 244.154H29.2302C19.7954 244.154 12.1453 236.504 12.1453 227.069Z" fill="#202121"/>
<path d="M42.1025 124.602H50.7375L46.4212 113.612L42.1025 124.602Z" fill="white"/>
<path d="M88.0234 161.494V166.597H102.546V172.093H88.0234V177.982H104.115L111.572 169.738L104.508 161.494H88.0234Z" fill="white"/>
<path d="M201.452 113.612L196.741 124.602H205.77L201.452 113.612Z" fill="white"/>
<path d="M130.021 181.119V158.748L119.815 169.738L130.021 181.119Z" fill="white"/>
<path d="M149.253 165.028C148.86 162.673 147.289 161.494 144.933 161.494H136.692V168.559H145.328C147.682 168.559 149.253 167.383 149.253 165.028Z" fill="white"/>
<path d="M176.724 167.776C177.509 167.383 177.903 166.204 177.903 165.029C178.296 163.46 177.509 162.674 176.724 162.281C175.941 161.888 174.762 161.888 173.586 161.888H165.734V168.169H173.585C174.761 168.169 175.94 168.169 176.724 167.776Z" fill="white"/>
<path d="M233.241 103.407V108.117L230.888 103.407H212.443V108.117L210.087 103.407H184.968C180.651 103.407 177.117 104.192 173.978 105.762V103.407H156.317V103.8V105.762C154.355 104.193 152 103.407 148.86 103.407H85.6695L81.3503 113.219L77.034 103.407H62.9051H57.0173V108.117L55.0547 103.407H54.6619H37.7853L29.9343 121.853L20.9081 141.87L20.7422 142.263H20.9081H40.9253H41.176L41.3182 141.87L43.6742 135.984H48.7763L51.1312 142.263H73.8934V141.87V137.553L75.8571 142.263H87.2382L89.1996 137.553V141.87V142.263H98.2269H143.363H143.756V132.058H144.543C145.327 132.058 145.327 132.058 145.327 133.236V141.87H173.587V139.515C175.941 140.695 179.472 141.87 184.182 141.87H195.958L198.313 135.592H203.806L206.161 141.87H228.924V137.946V135.984L232.458 141.87H233.241H233.635H250.905V103.407H233.242H233.241ZM100.191 136.377H96.2649H93.9106V134.024V114.789L93.5177 115.69V115.679L84.3871 136.377H84.0981H81.9989H78.6026L69.1836 114.789V136.377H55.8399L53.0927 130.49H39.7468L36.999 136.377H30.0997L41.7105 108.902H51.5218L62.5112 135.198V108.902H64.8655H72.9095L73.0947 109.296H73.1082L78.0602 120.073L81.6162 128.148L81.7421 127.741L89.5914 108.903H100.19V136.377H100.191ZM127.273 114.789H111.966V119.892H126.88V125.386H111.966V130.883H127.273V136.768H105.294V108.903H127.273V114.789ZM155.267 124.91C155.277 124.919 155.29 124.925 155.303 124.934C155.451 125.091 155.578 125.248 155.687 125.399C156.438 126.384 157.046 127.85 157.077 130C157.079 130.037 157.081 130.074 157.083 130.111C157.083 130.132 157.087 130.151 157.087 130.173C157.087 130.186 157.086 130.195 157.086 130.207C157.095 130.423 157.101 130.644 157.101 130.883V136.378H151.214V133.236C151.214 131.667 151.214 129.311 150.035 127.741C149.664 127.371 149.289 127.126 148.88 126.952C148.292 126.571 147.177 126.565 145.327 126.565H138.26V136.378H131.59V108.903H146.505C150.035 108.903 152.391 108.903 154.354 110.08C156.278 111.235 157.439 113.15 157.483 116.183C157.392 120.36 154.711 122.652 152.784 123.425C152.784 123.425 154.093 123.688 155.267 124.91ZM168.484 136.377H161.811V108.902H168.484V136.377ZM245.019 136.377H236.383L223.824 115.574V132.844L223.783 132.803V136.394H217.152V136.378H210.479L208.124 130.49H194.386L192.031 136.769H184.574C181.436 136.769 177.509 135.985 175.155 133.63C172.8 131.275 171.624 128.135 171.624 123.033C171.624 119.109 172.408 115.181 175.155 112.042C177.116 109.686 180.65 108.903 184.966 108.903H191.248V114.789H184.966C182.612 114.789 181.436 115.181 179.863 116.36C178.688 117.537 177.902 119.892 177.902 122.639C177.902 125.779 178.295 127.741 179.863 129.311C181.044 130.49 182.612 130.883 184.574 130.883H187.321L196.348 109.297H200.274H206.161L217.152 135.593V134.252V125.387V124.603V109.297H226.963L238.343 128.528V109.297H245.018V136.378H245.019V136.377Z" fill="white"/>
<path d="M149.671 120.345C149.785 120.223 149.889 120.084 149.977 119.925C150.333 119.362 150.74 118.348 150.521 116.965C150.512 116.838 150.489 116.721 150.462 116.607C150.454 116.575 150.455 116.548 150.447 116.516L150.443 116.517C150.248 115.845 149.749 115.431 149.252 115.181C148.465 114.79 147.288 114.79 146.111 114.79H138.26V121.07H146.111C147.288 121.07 148.466 121.07 149.252 120.677C149.37 120.617 149.475 120.536 149.576 120.444L149.577 120.449C149.578 120.448 149.618 120.406 149.671 120.345Z" fill="white"/>
<path d="M268.174 175.627C268.174 172.879 267.39 170.131 266.213 168.169V150.508H266.195V149.329C266.195 149.329 249.744 149.329 247.295 149.329C244.848 149.329 241.878 151.683 241.878 151.683V149.329H223.824C221.075 149.329 217.545 150.114 215.973 151.683V149.329H183.79V150.508V151.683C181.437 149.722 177.116 149.328 175.155 149.328H153.961V150.507V151.682C151.999 149.721 147.287 149.328 144.931 149.328H121.385L115.889 155.215L110.786 149.328H109.143H106.469H75.4639V150.507V153.607V188.971H110.003L115.678 183.294L120.597 188.971H120.991H140.892H141.794H142.187H142.578V185.046V179.944H144.542C147.287 179.944 150.821 179.944 153.568 178.765V188.576V189.363H171.23V188.576V179.158H172.013C173.192 179.158 173.192 179.158 173.192 180.335V188.576V189.363H226.569C230.104 189.363 233.634 188.576 235.596 187.007V188.576V189.363H252.474C256.004 189.363 259.539 188.971 261.894 187.4C265.508 185.232 267.786 181.394 268.124 176.817C268.14 176.682 268.16 176.546 268.172 176.41L268.149 176.388C268.164 176.134 268.174 175.883 268.174 175.627ZM144.542 173.272H136.691V174.447V176.803V179.158V183.476H123.79L116.282 174.84L116.256 174.869L115.889 174.447L107.254 183.476H82.1357V156.002H107.647L114.617 163.637L116.082 165.235L116.281 165.029L124.524 156.003H145.326C149.363 156.003 153.883 156.999 155.596 161.107C155.803 161.92 155.922 162.824 155.922 163.852C155.922 171.701 150.427 173.272 144.542 173.272ZM183.79 172.879C184.574 174.054 184.967 175.626 184.967 177.982V183.475H178.296V179.944C178.296 178.372 178.296 175.626 177.117 174.447C176.334 173.272 174.762 173.272 172.409 173.272H165.345V183.476H158.673V155.609H173.586C176.724 155.609 179.471 155.609 181.437 156.786C183.398 157.964 184.967 159.927 184.967 163.067C184.967 167.383 182.221 169.738 180.258 170.525C182.221 171.306 183.398 172.094 183.79 172.879ZM210.873 161.494H195.564V166.597H210.479V172.093H195.564V177.589H210.873V183.475H188.894V155.609H210.873V161.494ZM227.356 183.476H214.796V177.589H227.356C228.531 177.589 229.318 177.589 230.105 176.804C230.498 176.41 230.888 175.627 230.888 174.841C230.888 174.054 230.498 173.273 230.105 172.879C229.711 172.487 228.925 172.094 227.748 172.094C221.468 171.701 214.011 172.094 214.011 163.46C214.011 159.535 216.366 155.217 223.431 155.217H236.382V161.888H224.216C223.039 161.888 222.253 161.888 221.467 162.281C220.684 162.675 220.684 163.46 220.684 164.244C220.684 165.422 221.467 165.815 222.252 166.205C223.039 166.598 223.823 166.598 224.607 166.598H228.14C231.673 166.598 234.027 167.383 235.597 168.954C236.775 170.132 237.56 172.094 237.56 174.841C237.56 180.727 234.028 183.476 227.356 183.476ZM261.11 180.726C259.542 182.299 256.793 183.476 252.866 183.476H240.31V177.589H252.866C254.044 177.589 254.831 177.589 255.615 176.804C256.006 176.41 256.4 175.627 256.4 174.841C256.4 174.054 256.006 173.273 255.615 172.879C255.222 172.487 254.438 172.094 253.26 172.094C246.982 171.701 239.523 172.094 239.523 163.461C239.523 159.731 241.657 156.361 246.921 155.36C247.55 155.273 248.215 155.217 248.943 155.217H261.896V161.888H253.26H250.121H249.728C248.55 161.888 247.766 161.888 246.982 162.281C246.587 162.675 246.194 163.46 246.194 164.244C246.194 165.422 246.587 165.815 247.766 166.205C248.55 166.598 249.335 166.598 250.121 166.598H250.511H253.652C255.368 166.598 256.665 166.81 257.852 167.227C258.939 167.62 262.538 169.23 263.343 173.433C263.413 173.873 263.464 174.332 263.464 174.841C263.464 177.196 262.679 179.158 261.11 180.726Z" fill="white"/>
</svg>
