<svg width="60" height="60" viewBox="0 0 60 60" fill="none" xmlns="http://www.w3.org/2000/svg">
<path d="M53.0772 30.0008C53.0772 37.6266 46.8964 43.8085 39.271 43.8085C31.6464 43.8085 25.4648 37.6269 25.4648 30.0008C25.4648 22.3746 31.6463 16.1924 39.271 16.1924C46.8966 16.1924 53.0772 22.3745 53.0772 30.0008Z" fill="#D9222A"/>
<path d="M28.6056 38.7683C28.2232 38.3045 27.8719 37.8161 27.5538 37.306H32.4469C32.7415 36.8351 33.0071 36.3467 33.2425 35.8435H26.7585C26.5359 35.3679 26.3408 34.88 26.1742 34.382H33.8262C34.2867 33.0047 34.5362 31.532 34.5362 30.0002C34.5362 28.9967 34.4291 28.0185 34.2262 27.0762H25.7754C25.8818 26.5817 26.0156 26.0937 26.176 25.6139H33.8253C33.6583 25.1161 33.4634 24.628 33.2413 24.1521H26.7602C26.9958 23.6493 27.2615 23.161 27.5555 22.69H32.4455C32.1267 22.1808 31.7755 21.6929 31.3939 21.229H28.6073C29.0358 20.7088 29.5014 20.2204 30.0005 19.7675C27.5502 17.5457 24.2977 16.1919 20.7298 16.1919C13.1045 16.192 6.92285 22.3741 6.92285 30.0004C6.92285 37.6261 13.1042 43.8081 20.7298 43.8081C24.2981 43.8081 27.5503 42.4545 30.0005 40.2331C30.5005 39.7795 30.9668 39.29 31.3955 38.7687H28.6056" fill="#0097D0"/>
<path d="M51.2368 37.6953C51.2368 37.4491 51.4365 37.2494 51.683 37.2494C51.9291 37.2494 52.1285 37.4491 52.1285 37.6953C52.1285 37.9417 51.9291 38.1414 51.683 38.1414C51.4366 38.1415 51.2368 37.9417 51.2368 37.6954V37.6953ZM51.683 38.0343C51.87 38.0344 52.0216 37.8829 52.0218 37.6961V37.6953C52.0218 37.5085 51.8703 37.3571 51.6836 37.3571H51.683C51.4961 37.3567 51.3443 37.5079 51.3439 37.6949V37.6953C51.3438 37.8824 51.4955 38.0342 51.6825 38.0343H51.683ZM51.6225 37.8911H51.5314V37.4994H51.6967C51.731 37.4994 51.7662 37.4997 51.7967 37.5193C51.8288 37.5411 51.8464 37.5789 51.8464 37.617C51.8464 37.6618 51.8205 37.7026 51.7787 37.7183L51.8505 37.891H51.7494L51.6898 37.7365H51.6225V37.8911ZM51.6225 37.6696H51.6731C51.692 37.6696 51.7118 37.6709 51.7288 37.6618C51.7439 37.6519 51.752 37.6337 51.752 37.6164C51.7512 37.6005 51.7431 37.5858 51.7298 37.5769C51.7135 37.5673 51.6882 37.5692 51.6711 37.5692H51.6225V37.6696ZM29.804 33.7308C29.2139 33.8873 28.6434 33.9635 28.0401 33.9623C26.1158 33.9604 25.1135 33.084 25.1135 31.4084C25.1135 29.45 26.3894 28.0096 28.1213 28.0096C29.5379 28.0096 30.4424 28.8173 30.4424 30.0824C30.4424 30.5023 30.3812 30.9109 30.2312 31.4898H26.8091C26.6873 32.3077 27.2851 32.667 28.3024 32.667C28.912 32.667 29.4633 32.5574 30.0735 32.3123L29.804 33.7308ZM28.8838 30.3346C28.8838 30.2109 29.0741 29.3321 28.0838 29.3129C27.537 29.3129 27.1447 29.6763 26.9861 30.3346H28.8838ZM30.9633 29.9507C30.9633 30.6741 31.3707 31.1738 32.2963 31.5458C33.004 31.8359 33.1155 31.9195 33.1155 32.1782C33.1155 32.5368 32.8027 32.7016 32.1084 32.6971C31.587 32.6933 31.1114 32.6302 30.5498 32.4743L30.3014 33.7939C30.8004 33.9096 31.5004 33.9477 32.1205 33.9622C33.9687 33.9622 34.8218 33.357 34.8218 32.0493C34.8218 31.2634 34.4661 30.8006 33.5886 30.456C32.8549 30.163 32.7688 30.0993 32.7688 29.8342C32.7688 29.5226 33.0594 29.3649 33.6264 29.3649C33.9696 29.3649 34.4401 29.3967 34.8863 29.4501L35.137 28.1239C34.6822 28.0605 33.9921 28.0098 33.5928 28.0098C31.6351 28.0099 30.9575 28.8914 30.9633 29.9507ZM24.1754 33.8676H22.7399L22.7741 33.2661C22.3364 33.7407 21.7534 33.9616 20.962 33.9616C20.0254 33.9616 19.3838 33.3213 19.3838 32.4003C19.3838 31.0008 20.4991 30.1934 22.4168 30.1934C22.6139 30.1934 22.8645 30.208 23.1219 30.2366C23.1751 30.0495 23.1896 29.969 23.1896 29.8668C23.1896 29.4837 22.888 29.3427 22.0809 29.3427C21.2854 29.3459 20.7485 29.4636 20.2504 29.5976L20.4956 28.3129C21.3568 28.0939 21.921 28.0097 22.5591 28.0097C24.0441 28.0097 24.8283 28.5918 24.8283 29.6863C24.8411 29.9783 24.7392 30.5643 24.6883 30.8206C24.6299 31.1939 24.2184 33.3571 24.1754 33.8676ZM22.9154 31.3145C22.7334 31.2959 22.6543 31.2905 22.5299 31.2905C21.5508 31.2905 21.0543 31.5818 21.0543 32.1572C21.0543 32.5181 21.2966 32.7444 21.6741 32.7444C22.3777 32.7443 22.8857 32.1558 22.9154 31.3145ZM37.847 33.7769C37.3758 33.9062 37.0088 33.9623 36.6118 33.9623C35.7322 33.9623 35.2521 33.5128 35.2521 32.7123C35.2246 32.4923 35.4393 31.4769 35.488 31.1939C35.5367 30.9099 36.2985 26.7715 36.2985 26.7715H38.0072L37.7485 28.1407H38.6249L38.3867 29.5385H37.5066C37.5066 29.5385 37.0236 31.9639 37.0236 32.1488C37.0236 32.4431 37.2018 32.5709 37.6108 32.5709C37.8066 32.5709 37.9577 32.5526 38.0746 32.5176L37.847 33.7769ZM45.4813 28.0096C44.229 28.0096 43.2505 28.525 42.6823 29.386L43.1755 28.1093C42.2665 27.7757 41.6806 28.2517 41.1505 28.9286C41.1505 28.9286 41.0618 29.0411 40.9736 29.1439V28.1401H39.3691C39.1518 29.9116 38.7675 31.7078 38.4668 33.4821L38.3945 33.8683H40.1204C40.2839 32.9676 40.4185 32.2366 40.5525 31.6539C40.9193 30.0549 41.5362 29.5661 42.4625 29.7821C42.2487 30.242 42.1314 30.7738 42.1314 31.3632C42.1314 32.7924 42.9077 33.9623 44.8351 33.9623C46.7804 33.9623 48.1888 32.9231 48.1888 30.5539C48.1887 29.1247 47.2502 28.0096 45.4813 28.0096ZM44.979 32.5725C44.3694 32.5821 43.9999 32.0706 43.9999 31.3056C43.9999 30.3984 44.5393 29.3738 45.4056 29.3738C46.1046 29.3738 46.3441 29.9279 46.3441 30.5183C46.3441 31.809 45.8153 32.5725 44.979 32.5725ZM18.5798 33.8683H16.8611L17.8826 28.4873L15.531 33.8683H13.9643L13.6777 28.5183L12.6531 33.8683H11.0938L12.422 26.8686H15.1076L15.3316 30.7706L17.0329 26.8686H19.9344L18.5798 33.8683Z" fill="black"/>
<path d="M48.319 32.9909C48.3192 32.7449 48.5187 32.5453 48.7649 32.5452C49.0113 32.5452 49.2107 32.7452 49.2107 32.9909C49.2112 33.2372 49.012 33.4372 48.7657 33.4376C48.5195 33.4381 48.3195 33.2389 48.319 32.9926V32.9909ZM48.7649 33.3304C48.9522 33.3302 49.1039 33.1783 49.104 32.9909C49.1038 32.8037 48.952 32.6522 48.7649 32.6522C48.5776 32.6522 48.4259 32.8038 48.4258 32.9909C48.4259 33.1783 48.5776 33.3302 48.7649 33.3304ZM48.7046 33.1869H48.6133V32.7958H48.7786C48.8133 32.7958 48.8485 32.7958 48.879 32.815C48.9104 32.8366 48.9286 32.8741 48.9286 32.9128C48.9286 32.9574 48.9027 32.9986 48.8607 33.0141L48.9325 33.1869H48.8312L48.772 33.0323H48.7046V33.1869ZM48.7046 32.9647H48.7553C48.7739 32.9647 48.794 32.966 48.811 32.9573C48.8256 32.9469 48.8342 32.93 48.8338 32.912C48.8333 32.8962 48.8253 32.8816 48.812 32.8726C48.7956 32.8626 48.7703 32.8653 48.7533 32.8653H48.7046V32.9647ZM30.2346 33.2996C29.645 33.456 29.0741 33.5326 28.4712 33.5313C26.5468 33.5294 25.5446 32.6529 25.5446 30.9769C25.5446 29.0192 26.82 27.5783 28.552 27.5783C29.969 27.5783 30.8731 28.3859 30.8731 29.6509C30.8731 30.0714 30.8116 30.4793 30.6623 31.0586H27.2402C27.1184 31.8763 27.7156 32.2362 28.7331 32.2362C29.3427 32.2362 29.8937 32.1266 30.5046 31.881L30.2346 33.2996ZM29.3145 29.9035C29.3145 29.7801 29.5045 28.9009 28.5146 28.8819C27.9677 28.8819 27.5758 29.2458 27.4168 29.9035H29.3145ZM31.3943 29.5192C31.3943 30.2429 31.801 30.7423 32.727 31.115C33.435 31.4049 33.5461 31.4886 33.5461 31.7467C33.5461 32.1057 33.2334 32.2706 32.5394 32.2659C32.0176 32.2625 31.542 32.199 30.9807 32.0432L30.7317 33.3621C31.231 33.4788 31.9315 33.5169 32.5513 33.5313C34.3993 33.5313 35.2528 32.9259 35.2528 31.6183C35.2528 30.8323 34.8968 30.3692 34.0189 30.0249C33.2853 29.732 33.1993 29.6682 33.1993 29.4032C33.1993 29.0916 33.4903 28.9339 34.0567 28.9339C34.4006 28.9339 34.8708 28.9659 35.3173 29.0194L35.5673 27.6928C35.1125 27.6294 34.4227 27.5788 34.0237 27.5788C32.0654 27.5788 31.3882 28.4598 31.3943 29.5192ZM24.6064 33.4369H23.1706L23.2052 32.8353C22.767 33.309 22.184 33.5302 21.393 33.5302C20.4564 33.5302 19.8145 32.8897 19.8145 31.9695C19.8145 30.5693 20.9295 29.7622 22.8475 29.7622C23.0446 29.7622 23.2949 29.7769 23.5529 29.8054C23.6061 29.6183 23.6203 29.5381 23.6203 29.4356C23.6203 29.0523 23.319 28.9115 22.5119 28.9115C21.7164 28.9148 21.1796 29.0326 20.6814 29.1663L20.9263 27.882C21.7879 27.6628 22.3516 27.5786 22.9901 27.5786C24.475 27.5786 25.259 28.1606 25.259 29.2548C25.2719 29.5472 25.1699 30.1326 25.1193 30.3897C25.0606 30.7628 24.6491 32.9259 24.6064 33.4369ZM23.3459 30.8832C23.1645 30.8644 23.085 30.8592 22.9603 30.8592C21.9818 30.8592 21.485 31.1505 21.485 31.7259C21.485 32.087 21.7276 32.3131 22.1046 32.3131C22.8087 32.3131 23.3167 31.7243 23.3459 30.8832ZM38.2774 33.3461C37.8066 33.4749 37.4393 33.5313 37.0424 33.5313C36.163 33.5313 35.6832 33.0816 35.6832 32.281C35.6553 32.0615 35.8704 31.0457 35.9187 30.7628C35.9674 30.4788 36.7293 26.3403 36.7293 26.3403H38.4376L38.1796 27.7096H39.0559L38.8177 29.1073H37.9377C37.9377 29.1073 37.4543 31.5326 37.4543 31.7176C37.4543 32.0119 37.6328 32.1391 38.0416 32.1391C38.237 32.1391 38.3883 32.1215 38.5053 32.0859L38.2774 33.3461ZM46.7751 30.0871C46.7751 31.3775 46.2459 32.1416 45.4093 32.1416C44.8001 32.1503 44.4304 31.6397 44.4304 30.8743C44.4304 29.9673 44.9696 28.9426 45.8359 28.9426C46.5353 28.9426 46.7751 29.4974 46.7751 30.0871ZM48.6196 30.123C48.6196 28.6938 47.6805 27.5784 45.9123 27.5784C43.8777 27.5784 42.5623 28.9343 42.5623 30.9321C42.5623 32.3613 43.338 33.5314 45.2661 33.5314C47.2113 33.5313 48.6196 32.4919 48.6196 30.123ZM39.7996 27.7089C39.5826 29.4804 39.1983 31.2763 38.8979 33.0513L38.8251 33.4375H40.5509C41.173 30.0099 41.3816 29.0333 42.6848 29.3773L43.3116 27.7551C42.4028 27.4214 41.8174 27.8977 41.288 28.5749C41.3356 28.2703 41.4258 27.9763 41.404 27.7089H39.7996ZM19.0103 33.4374H17.2921L18.3133 28.0559L15.9613 33.4374H14.395L14.1084 28.087L13.0838 33.4374H11.5244L12.8523 26.4374H15.5385L15.6805 30.7708L17.5709 26.4374H20.3651L19.0103 33.4374" fill="white"/>
</svg>
