<svg width="60" height="60" viewBox="0 0 60 60" fill="none" xmlns="http://www.w3.org/2000/svg">
<path d="M0 4C0 1.79086 1.79086 0 4 0H56C58.2091 0 60 1.79086 60 4V56C60 58.2091 58.2091 60 56 60H4C1.79086 60 0 58.2091 0 56V4Z" fill="#E5E5E5"/>
<path d="M13.7737 41.7279C17.531 41.7593 20.9607 36.463 20.9607 30.0198C20.9607 22.9745 17.531 18.1046 13.7737 18.1066H10.5402C6.73788 18.1046 3.60815 22.9756 3.60815 30.0198C3.60815 36.4645 6.73788 41.7593 10.5402 41.7279H13.7737Z" fill="#006095"/>
<path d="M11.9827 36.2936V23.4998C13.4793 24.4863 14.5417 26.9761 14.5442 29.8963C14.5417 32.8171 13.4793 35.3054 11.9827 36.2936ZM6.56807 29.8963C6.57143 26.9778 7.63219 24.4895 9.12796 23.5001V36.291C7.63219 35.3025 6.57143 32.8157 6.56807 29.8963ZM10.5556 19.083C7.08116 19.085 4.26573 23.9243 4.26489 29.8963C4.26573 35.8678 7.08116 40.7061 10.5556 40.7079C14.0312 40.7061 16.8471 35.8678 16.8476 29.8963C16.8471 23.9243 14.0312 19.085 10.5556 19.083Z" fill="white"/>
<path d="M23.1643 23.1885C23.1643 22.0713 22.825 22.1446 22.4999 22.1328V21.8099C22.7817 21.8336 23.0706 21.8336 23.353 21.8336C23.6564 21.8336 24.0686 21.8099 24.6038 21.8099C26.4757 21.8099 27.4948 23.9583 27.4948 26.1584C27.4948 27.3884 27.0759 30.4814 24.5167 30.4814C24.1483 30.4814 23.808 30.4569 23.4685 30.4569C23.1435 30.4569 22.825 30.4687 22.4999 30.4814V30.1583C22.9333 30.0836 23.1435 30.0587 23.1643 29.2139V23.1885ZM23.8728 29.0154C23.8728 29.9719 24.2709 30.0836 24.6248 30.0836C26.1866 30.0836 26.6995 28.0586 26.6995 26.2074C26.6995 23.885 25.832 22.2081 24.4369 22.2081C24.1401 22.2081 24.0036 22.2444 23.8728 22.2577V29.0154ZM27.7483 30.1586H27.8855C28.0876 30.1586 28.2324 30.1586 28.2324 29.7477V26.3817C28.2324 25.8355 28.1241 25.7596 27.8563 25.5126V25.3135C28.1961 25.1387 28.6012 24.9038 28.6298 24.8666C28.6806 24.817 28.7238 24.8037 28.76 24.8037C28.7958 24.8037 28.8108 24.8784 28.8108 24.9786V29.7477C28.8108 30.1586 28.9697 30.1586 29.1724 30.1586H29.295V30.4817C29.049 30.4817 28.7958 30.4569 28.5362 30.4569C28.2758 30.4569 28.0154 30.469 27.7483 30.4817V30.1586ZM28.5218 22.891C28.3334 22.891 28.1675 22.593 28.1675 22.2698C28.1675 21.9588 28.3413 21.6723 28.5218 21.6723C28.7092 21.6723 28.8759 21.9343 28.8759 22.2698C28.8759 22.6057 28.7166 22.891 28.5218 22.891ZM29.9818 26.4558C29.9818 25.9965 29.9019 25.8727 29.5629 25.6367V25.4007C29.8734 25.227 30.1695 25.0648 30.5169 24.8037C30.5384 24.8037 30.5595 24.8291 30.5595 24.9278V25.7357C30.9722 25.227 31.3267 24.8037 31.8115 24.8037C32.4255 24.8037 32.6423 25.5741 32.6423 26.5433V29.7477C32.6423 30.1586 32.8011 30.1586 33.0037 30.1586H33.1339V30.4817C32.8803 30.4817 32.6273 30.4569 32.3678 30.4569C32.1072 30.4569 31.8468 30.469 31.5867 30.4817V30.1586H31.7167C31.9195 30.1586 32.0634 30.1586 32.0634 29.7477V26.5312C32.0634 25.8222 31.8115 25.4751 31.3988 25.4751C31.1677 25.4751 30.799 25.7977 30.5595 26.0712V29.7477C30.5595 30.1586 30.7195 30.1586 30.922 30.1586H31.052V30.4817C30.799 30.4817 30.5456 30.4569 30.2854 30.4569C30.0255 30.4569 29.7647 30.469 29.5048 30.4817V30.1586H29.6353C29.8376 30.1586 29.9818 30.1586 29.9818 29.7477V26.4558ZM33.6836 27.0531C33.6686 27.1651 33.6686 27.3509 33.6836 27.7736C33.726 28.9534 34.1683 29.922 34.7457 29.922C35.1439 29.922 35.4552 29.5492 35.722 29.0901L35.823 29.2641C35.4904 30.0221 35.0783 30.6678 34.4861 30.6678C33.3362 30.6678 33.1052 28.7543 33.1052 27.9597C33.1052 25.5245 34.059 24.8037 34.5647 24.8037C35.1508 24.8037 35.7802 25.437 35.7866 26.7539C35.7866 26.8295 35.7866 26.9031 35.7802 26.9784L35.7146 27.0531H33.6836ZM34.9632 26.6552C35.1439 26.6552 35.1649 26.4934 35.1649 26.3445C35.1649 25.7111 34.9411 25.2019 34.536 25.2019C34.0952 25.2019 33.7917 25.7596 33.705 26.6552H34.9632ZM35.9533 30.1586H36.1486C36.3502 30.1586 36.495 30.1586 36.495 29.7477V26.2576C36.495 25.8727 36.2278 25.7977 36.1192 25.6984V25.5126C36.6469 25.1272 36.9362 24.8037 37.0022 24.8037C37.0446 24.8037 37.0661 24.8409 37.0661 24.9659V26.0836H37.0816C37.2616 25.5992 37.5658 24.8037 38.0065 24.8037C38.1873 24.8037 38.4184 25.0146 38.4184 25.4621C38.4184 25.7977 38.2814 26.0966 38.079 26.0966C37.8541 26.0966 37.8541 25.7977 37.6014 25.7977C37.4783 25.7977 37.0737 26.0836 37.0737 26.8295V29.7477C37.0737 30.1586 37.2179 30.1586 37.4206 30.1586H37.8252V30.4817C37.4274 30.469 37.1249 30.4569 36.8136 30.4569C36.5173 30.4569 36.2136 30.469 35.9533 30.4817V30.1586ZM38.7363 28.7543C38.8305 29.574 39.1195 30.2702 39.6475 30.2702C40.0733 30.2702 40.2323 29.823 40.2323 29.3885C40.2323 27.9222 38.6569 28.3939 38.6569 26.3944C38.6569 25.6982 38.9826 24.8037 39.7775 24.8037C40.0085 24.8037 40.3193 24.9159 40.601 25.1647L40.652 26.4307H40.4856C40.4134 25.6488 40.1606 25.2016 39.6977 25.2016C39.4083 25.2016 39.1339 25.4872 39.1339 26.0213C39.1339 27.4758 40.811 27.0277 40.811 28.9779C40.811 29.7976 40.4279 30.6681 39.5674 30.6681C39.2783 30.6681 38.9385 30.4938 38.6858 30.2457L38.6061 28.8169L38.7363 28.7543ZM47.3386 24.0581H47.1583C47.0206 22.6057 46.4205 22.0211 45.6113 22.0211C44.7795 22.0211 43.572 22.9773 43.572 25.9587C43.572 28.4695 44.6138 30.2702 45.7266 30.2702C46.442 30.2702 47.0354 29.4257 47.1801 28.1207L47.346 28.1951L47.1801 30.0088C46.8764 30.3328 46.0594 30.6678 45.5819 30.6678C43.8909 30.6678 42.8212 28.7918 42.8212 25.9965C42.8212 23.4496 44.1437 21.6229 45.5606 21.6229C46.1459 21.6229 46.71 21.947 47.2664 22.2825L47.3386 24.0581ZM47.5993 30.1586H47.736C47.939 30.1586 48.0837 30.1586 48.0837 29.7477V22.8293C48.0837 22.0211 47.9752 21.9963 47.7006 21.8598V21.661C47.9895 21.4997 48.2932 21.2761 48.445 21.1264C48.5239 21.0525 48.5822 20.9893 48.6035 20.9893C48.6475 20.9893 48.6621 21.0646 48.6621 21.1642V29.7477C48.6621 30.1586 48.8209 30.1586 49.0236 30.1586H49.1456V30.4817C48.9007 30.4817 48.6475 30.4569 48.3873 30.4569C48.1272 30.4569 47.867 30.469 47.5993 30.4817V30.1586ZM52.2408 29.7976C52.2408 30.0221 52.32 30.0339 52.4428 30.0339C52.5297 30.0339 52.6377 30.0221 52.732 30.0221V30.2835C52.4208 30.3328 51.8283 30.5937 51.6908 30.6681L51.6543 30.6306V29.6248C51.2213 30.2333 50.8882 30.6681 50.3745 30.6681C49.9844 30.6681 49.5797 30.2333 49.5797 29.1903V26.0092C49.5797 25.686 49.5509 25.3753 49.1465 25.3135V25.0772C49.4071 25.0651 49.9844 24.9907 50.0788 24.9907C50.1589 24.9907 50.1589 25.0772 50.1589 25.3508V28.5552C50.1589 28.9286 50.1589 29.9967 50.7873 29.9967C51.0331 29.9967 51.3583 29.6738 51.6615 29.2399V25.8967C51.6615 25.6488 51.3148 25.5126 51.0551 25.3883V25.1647C51.705 25.0896 52.1105 24.9907 52.1824 24.9907C52.2408 24.9907 52.2408 25.0772 52.2408 25.2146V29.7976ZM53.6791 25.6984C53.9679 25.276 54.3584 24.8037 54.7563 24.8037C55.595 24.8037 56.1003 26.0594 56.1003 27.4129C56.1003 29.0402 55.4068 30.6681 54.3724 30.6681C53.838 30.6681 53.5561 30.3695 53.3679 30.2333L53.1513 30.5184L53 30.3822C53.064 29.6493 53.1009 28.9286 53.1009 28.1709V22.8293C53.1009 22.0211 52.9919 21.9963 52.7174 21.8598V21.661C53.0072 21.4997 53.3101 21.2761 53.4622 21.1264C53.5416 21.0525 53.599 20.9893 53.6215 20.9893C53.6649 20.9893 53.6791 21.0646 53.6791 21.1642V25.6984ZM53.6791 29.0772C53.6791 29.5492 53.9392 30.3453 54.4236 30.3453C55.1972 30.3453 55.5223 29.0402 55.5223 27.934C55.5223 26.5926 54.9301 25.4751 54.366 25.4751C54.0979 25.4751 53.8742 25.7735 53.6791 26.0594V29.0772ZM22.4917 37.7045H22.5471C22.6885 37.7045 22.8379 37.6717 22.8379 37.3196V33.7785C22.8379 33.4259 22.6885 33.3924 22.5471 33.3924H22.4917V33.1896C22.6452 33.1896 22.8812 33.2161 23.0745 33.2161C23.2709 33.2161 23.5066 33.1896 23.6915 33.1896V33.3924H23.6362C23.4952 33.3924 23.3454 33.4259 23.3454 33.7785V37.3196C23.3454 37.6717 23.4952 37.7045 23.6362 37.7045H23.6915V37.9083C23.5028 37.9083 23.2662 37.8817 23.0703 37.8817C22.8774 37.8817 22.6452 37.9083 22.4917 37.9083V37.7045ZM26.3939 36.5758L26.4018 36.5625V34.0281C26.4018 33.4735 26.1773 33.3924 26.0595 33.3924H25.9728V33.1896C26.1578 33.1896 26.3388 33.2164 26.5235 33.2164C26.6847 33.2164 26.8466 33.1896 27.0074 33.1896V33.3924H26.9488C26.7831 33.3924 26.5982 33.4467 26.5982 34.2508V37.3271C26.5982 37.5635 26.6023 37.7998 26.6216 38.0092H26.4721L24.4467 34.1288V36.9143C24.4467 37.5023 24.513 37.7045 24.8162 37.7045H24.8829V37.9083C24.714 37.9083 24.5451 37.8817 24.3756 37.8817C24.1992 37.8817 24.018 37.9083 23.8409 37.9083V37.7045H23.896C24.1673 37.7045 24.2497 37.3875 24.2497 36.8473V34.0001C24.2497 33.6221 24.0684 33.3924 23.8921 33.3924H23.8409V33.1896C23.9902 33.1896 24.1436 33.2164 24.2927 33.2164C24.4109 33.2164 24.5252 33.1896 24.6431 33.1896L26.3939 36.5758ZM27.5965 33.5275C27.301 33.5275 27.29 33.6492 27.2309 34.142H27.113C27.1283 33.9531 27.1483 33.7641 27.1602 33.5676C27.1761 33.378 27.1837 33.1896 27.1837 32.9937H27.278C27.3098 33.1968 27.408 33.1896 27.5148 33.1896H29.5438C29.6502 33.1896 29.7483 33.183 29.7565 32.9798L29.8504 33.007C29.8351 33.1896 29.8191 33.3717 29.8072 33.5546C29.8 33.7372 29.8 33.9199 29.8 34.1019L29.6818 34.177C29.6737 33.9271 29.6539 33.5275 29.3907 33.5275H28.7456V37.1237C28.7456 37.6451 28.8834 37.7045 29.0718 37.7045H29.1465V37.9083C28.9933 37.9083 28.7177 37.8817 28.5057 37.8817C28.2696 37.8817 27.9941 37.9083 27.8405 37.9083V37.7045H27.9152C28.1323 37.7045 28.2418 37.6714 28.2418 37.1379V33.5275H27.5965ZM29.9761 37.7045H30.0313C30.1729 37.7045 30.3225 37.6717 30.3225 37.3196V33.7785C30.3225 33.4259 30.1729 33.3924 30.0313 33.3924H29.9761V33.1896C30.2155 33.1896 30.6255 33.2161 30.9553 33.2161C31.2862 33.2161 31.6947 33.1896 31.962 33.1896C31.9552 33.4799 31.9591 33.9268 31.9705 34.224L31.852 34.2782C31.833 33.8391 31.786 33.4877 31.3727 33.4877H30.8265V35.2581H31.2939C31.5298 35.2581 31.5813 35.029 31.6047 34.6631H31.7224C31.7147 34.9274 31.7106 35.1909 31.7106 35.454C31.7106 35.7117 31.7147 35.9682 31.7224 36.225L31.6047 36.2651C31.5813 35.86 31.5694 35.5962 31.2976 35.5962H30.8265V37.1711C30.8265 37.6105 31.0537 37.6105 31.3055 37.6105C31.7778 37.6105 31.986 37.556 32.1042 36.7864L32.2141 36.8329C32.1628 37.1921 32.1158 37.5493 32.0808 37.9083C31.8287 37.9083 31.3763 37.8817 31.0228 37.8817C30.6683 37.8817 30.2002 37.9083 29.9761 37.9083V37.7045ZM32.745 33.9057C32.745 33.4126 32.5877 33.3924 32.4655 33.3924H32.3946V33.1893C32.5205 33.1893 32.7643 33.2164 33.0044 33.2164C33.2401 33.2164 33.4292 33.1893 33.6376 33.1893C34.1328 33.1893 34.5739 33.419 34.5739 34.3798C34.5739 34.9872 34.338 35.3591 34.0272 35.5697L34.6997 37.2989C34.81 37.5848 34.8882 37.665 35.0813 37.7043V37.9083C34.9513 37.9083 34.8254 37.8817 34.6958 37.8817C34.5739 37.8817 34.4476 37.9083 34.3263 37.9083C34.0234 37.2256 33.7631 36.4956 33.5078 35.7171H33.2487V37.1644C33.2487 37.6855 33.3899 37.7043 33.5706 37.7043H33.6416V37.9083C33.4169 37.9083 33.1896 37.8817 32.9651 37.8817C32.7761 37.8817 32.5912 37.9083 32.3946 37.9083V37.7043H32.4655C32.6115 37.7043 32.745 37.5909 32.745 37.3404V33.9057ZM33.2487 35.4736H33.4408C33.8345 35.4736 34.0464 35.2174 34.0464 34.4193C34.0464 33.8186 33.8224 33.4331 33.472 33.4331C33.3538 33.4331 33.3034 33.4539 33.2487 33.46V35.4736ZM37.7518 36.5758L37.7589 36.5625V34.0281C37.7589 33.4735 37.5351 33.3924 37.4172 33.3924H37.3309V33.1896C37.5157 33.1896 37.6961 33.2164 37.8814 33.2164C38.0429 33.2164 38.2034 33.1896 38.366 33.1896V33.3924H38.3065C38.1415 33.3924 37.9565 33.4467 37.9565 34.2508V37.3271C37.9565 37.5635 37.9602 37.7998 37.9796 38.0092H37.8306L35.8049 34.1288V36.9143C35.8049 37.5023 35.8716 37.7045 36.1744 37.7045H36.2413V37.9083C36.0724 37.9083 35.9031 37.8817 35.7342 37.8817C35.5566 37.8817 35.3758 37.9083 35.199 37.9083V37.7045H35.2535C35.5254 37.7045 35.608 37.3875 35.608 36.8473V34.0001C35.608 33.6221 35.427 33.3924 35.2502 33.3924H35.199V33.1896C35.3479 33.1896 35.502 33.2164 35.6514 33.2164C35.7685 33.2164 35.883 33.1896 36.0013 33.1896L37.7518 36.5758ZM38.9984 36.9417C38.9585 37.1711 38.9111 37.3479 38.9111 37.4685C38.9111 37.6717 39.0765 37.7045 39.2059 37.7045H39.2499V37.9083C39.0923 37.8935 38.9316 37.882 38.7731 37.882C38.6317 37.882 38.4911 37.8935 38.3488 37.9083V37.7045H38.3727C38.526 37.7045 38.6561 37.5493 38.7142 37.2648L39.3443 34.1634C39.3948 33.9132 39.4663 33.5751 39.49 33.3241C39.6153 33.2508 39.7729 33.1157 39.8476 33.0344C39.8597 33.0272 39.8666 33.0202 39.879 33.0202C39.8908 33.0202 39.898 33.0202 39.9069 33.041C39.9187 33.095 39.9297 33.1558 39.9425 33.2098L40.6661 36.7455C40.7131 36.9818 40.76 37.2316 40.8109 37.4353C40.8585 37.6246 40.9411 37.7045 41.0711 37.7045H41.0946V37.9083C40.9176 37.8935 40.7403 37.882 40.552 37.882C40.3594 37.882 40.1621 37.8935 39.9615 37.9083V37.7045H40.0051C40.0951 37.7045 40.2491 37.6783 40.2491 37.5089C40.2491 37.4215 40.2136 37.2391 40.1697 37.0222L40.0167 36.2382H39.1238L38.9984 36.9417ZM39.5725 33.9467H39.5644L39.1986 35.86H39.9336L39.5725 33.9467ZM41.2677 33.5275C40.9725 33.5275 40.9608 33.6492 40.9017 34.142H40.7835C40.7989 33.9531 40.8189 33.7641 40.8312 33.5676C40.8468 33.378 40.8542 33.1896 40.8542 32.9937H40.949C40.9803 33.1968 41.079 33.1896 41.1848 33.1896H43.2148C43.3205 33.1896 43.4188 33.183 43.4268 32.9798L43.521 33.007C43.5059 33.1896 43.4901 33.3717 43.4784 33.5546C43.4696 33.7372 43.4696 33.9199 43.4696 34.1019L43.3519 34.177C43.3447 33.9271 43.3249 33.5275 43.0613 33.5275H42.4161V37.1237C42.4161 37.6451 42.5541 37.7045 42.7425 37.7045H42.8174V37.9083C42.6639 37.9083 42.3887 37.8817 42.1762 37.8817C41.9406 37.8817 41.6646 37.9083 41.5113 37.9083V37.7045H41.586C41.8028 37.7045 41.9127 37.6714 41.9127 37.1379V33.5275H41.2677ZM43.6661 37.7045H43.7211C43.8632 37.7045 44.0119 37.6717 44.0119 37.3196V33.7785C44.0119 33.4259 43.8632 33.3924 43.7211 33.3924H43.6661V33.1896C43.8199 33.1896 44.0554 33.2161 44.2478 33.2161C44.4451 33.2161 44.681 33.1896 44.8662 33.1896V33.3924H44.8111C44.6692 33.3924 44.5195 33.4259 44.5195 33.7785V37.3196C44.5195 37.6717 44.6692 37.7045 44.8111 37.7045H44.8662V37.9083C44.6771 37.9083 44.4411 37.8817 44.2446 37.8817C44.0516 37.8817 43.8199 37.9083 43.6661 37.9083V37.7045ZM46.4348 33.0886C47.2735 33.0886 47.9417 33.9813 47.9417 35.4211C47.9417 36.976 47.2926 38.0095 46.4551 38.0095C45.6205 38.0095 44.9837 37.0363 44.9837 35.583C44.9837 34.1772 45.6168 33.0886 46.4348 33.0886ZM46.4943 37.7121C47.2575 37.7121 47.3903 36.5553 47.3903 35.57C47.3903 34.5815 47.0805 33.3855 46.4273 33.3855C45.7387 33.3855 45.5344 34.4404 45.5344 35.3452C45.5344 36.5553 45.8569 37.7121 46.4943 37.7121ZM50.5922 36.5758L50.6003 36.5625V34.0281C50.6003 33.4735 50.3755 33.3924 50.2574 33.3924H50.1722V33.1896C50.3563 33.1896 50.5375 33.2164 50.7217 33.2164C50.8837 33.2164 51.0449 33.1896 51.2064 33.1896V33.3924H51.1469C50.9821 33.3924 50.7969 33.4467 50.7969 34.2508V37.3271C50.7969 37.5635 50.8006 37.7998 50.8206 38.0092H50.6713L48.6451 34.1288V36.9143C48.6451 37.5023 48.7121 37.7045 49.0147 37.7045H49.0818V37.9083C48.9126 37.9083 48.7439 37.8817 48.5746 37.8817C48.3977 37.8817 48.2162 37.9083 48.0391 37.9083V37.7045H48.0946C48.3664 37.7045 48.4482 37.3875 48.4482 36.8473V34.0001C48.4482 33.6221 48.2682 33.3924 48.0904 33.3924H48.0391V33.1896C48.1888 33.1896 48.3423 33.2164 48.4915 33.2164C48.6094 33.2164 48.7232 33.1896 48.8416 33.1896L50.5922 36.5758ZM51.8383 36.9417C51.7997 37.1711 51.752 37.3479 51.752 37.4685C51.752 37.6717 51.9178 37.7045 52.0467 37.7045H52.0907V37.9083C51.9332 37.8935 51.7717 37.882 51.6144 37.882C51.4723 37.882 51.3313 37.8935 51.1903 37.9083V37.7045H51.2126C51.3666 37.7045 51.4968 37.5493 51.5549 37.2648L52.1852 34.1634C52.2361 33.9132 52.3073 33.5751 52.3301 33.3241C52.4562 33.2508 52.6133 33.1157 52.6887 33.0344C52.7 33.0272 52.7079 33.0202 52.7198 33.0202C52.7315 33.0202 52.7391 33.0202 52.747 33.041C52.7589 33.095 52.771 33.1558 52.7829 33.2098L53.5062 36.7455C53.5534 36.9818 53.6004 37.2316 53.6521 37.4353C53.6993 37.6246 53.7822 37.7045 53.9117 37.7045H53.9357V37.9083C53.7584 37.8935 53.5813 37.882 53.3922 37.882C53.2 37.882 53.0029 37.8935 52.8022 37.9083V37.7045H52.8457C52.9355 37.7045 53.09 37.6783 53.09 37.5089C53.09 37.4215 53.0542 37.2391 53.0104 37.0222L52.8576 36.2382H51.9646L51.8383 36.9417ZM52.4132 33.9467H52.4053L52.039 35.86H52.7752L52.4132 33.9467ZM54.9268 37.2455C54.9268 37.5164 55.0361 37.5969 55.162 37.6246C55.3233 37.6451 55.5003 37.6451 55.6818 37.6108C55.8466 37.5767 55.9882 37.4149 56.0589 37.2455C56.1217 37.0966 56.1569 36.9076 56.1809 36.7587H56.2949C56.2518 37.1439 56.1965 37.5234 56.149 37.9083C55.8038 37.9083 55.4565 37.882 55.1113 37.882C54.7646 37.882 54.4189 37.9083 54.0727 37.9083V37.7045H54.1269C54.2691 37.7045 54.4229 37.6717 54.4229 37.2521V33.7782C54.4229 33.4259 54.2691 33.3924 54.1269 33.3924H54.0727V33.1896C54.2807 33.1896 54.4855 33.2164 54.6937 33.2164C54.895 33.2164 55.0913 33.1896 55.2921 33.1896V33.3924H55.1932C55.0441 33.3924 54.9268 33.3999 54.9268 33.7574V37.2455Z" fill="#1A1918"/>
</svg>
