<svg width="14" height="24" viewBox="0 0 14 24" fill="none" xmlns="http://www.w3.org/2000/svg">
<path d="M13.1881 0.502031C13.3428 0.535872 13.4732 0.646987 13.4636 0.859624C13.4105 1.9227 13.3525 2.99052 13.0867 4.02461C13.1206 4.31452 12.9418 4.65272 12.6083 4.60928C10.2309 4.29523 9.36605 6.43583 9.05674 8.84694C10.1874 8.91462 11.3085 9.00159 12.4005 9.09816C12.6035 9.11745 12.7146 9.25766 12.7387 9.41221C12.7967 9.4509 12.8498 9.50888 12.874 9.59586C13.0672 10.2241 13.0721 10.9294 13.0866 11.5867C13.0963 12.1036 13.1591 12.6883 12.8111 13.099C12.8547 13.3407 12.7242 13.6209 12.4004 13.6306C11.2408 13.645 10.0666 13.6644 8.88754 13.6741C8.88754 13.7901 8.88754 13.906 8.88269 14.0123C8.80057 17.1676 8.93583 20.3132 8.90199 23.4636C8.89714 23.7101 8.69905 23.8018 8.52025 23.7681C8.49611 23.7825 8.47197 23.8019 8.44298 23.8115C7.84861 24 7.17696 23.971 6.55855 23.9903C5.94489 24.0048 5.34093 24.0193 4.73201 23.913C4.5822 23.9613 4.39856 23.913 4.36482 23.715C3.81884 20.5935 3.91066 17.2981 3.92511 14.138C3.92511 13.9399 3.92511 13.7418 3.92511 13.5436C2.96355 13.4808 2.00684 13.3841 1.06458 13.2488C0.919624 13.2247 0.847093 13.128 0.8375 13.0169C0.489607 12.785 0.57173 12.1762 0.566881 11.7944C0.552333 10.973 0.460615 10.0211 0.697288 9.22867C0.72143 9.14655 0.779412 9.09342 0.851943 9.05473C0.895377 9.00644 0.958208 8.9726 1.04518 8.9629C2.00674 8.84694 2.99729 8.77926 3.99753 8.74542C4.04581 7.83699 4.12804 6.92857 4.26815 6.03954C4.9301 1.79704 8.56864 -0.778427 12.8643 0.21212C13.0432 0.255554 13.1446 0.371519 13.1881 0.502031Z" fill="white"/>
</svg>
