<svg width="24" height="24" viewBox="0 0 24 24" fill="none" xmlns="http://www.w3.org/2000/svg">
<g clip-path="url(#clip0_360_6043)">
<path d="M23.094 9.91355L13.3046 9.91309C12.8723 9.91309 12.5219 10.2634 12.5219 10.6957V13.823C12.5219 14.2552 12.8723 14.6056 13.3045 14.6056H18.8173C18.2137 16.1722 17.087 17.4842 15.6495 18.3178L18.0001 22.387C21.7709 20.2062 24.0001 16.3799 24.0001 12.0965C24.0001 11.4866 23.9552 11.0506 23.8653 10.5597C23.7969 10.1867 23.4731 9.91355 23.094 9.91355Z" fill="#167EE6"/>
<path d="M12.0008 19.3042C9.30296 19.3042 6.94777 17.8302 5.68285 15.6489L1.61382 17.9943C3.68452 21.5831 7.56362 23.9998 12.0008 23.9998C14.1775 23.9998 16.2315 23.4138 18.0008 22.3924V22.3868L15.6502 18.3176C14.5749 18.9412 13.3307 19.3042 12.0008 19.3042Z" fill="#12B347"/>
<path d="M18 22.3927V22.3872L15.6494 18.3179C14.5741 18.9415 13.33 19.3045 12 19.3045V24.0002C14.1767 24.0002 16.2308 23.4141 18 22.3927Z" fill="#0F993E"/>
<path d="M4.69566 11.9998C4.69566 10.6701 5.05856 9.42594 5.68205 8.35077L1.61302 6.00543C0.586031 7.7692 0 9.81754 0 11.9998C0 14.1822 0.586031 16.2305 1.61302 17.9943L5.68205 15.6489C5.05856 14.5737 4.69566 13.3296 4.69566 11.9998Z" fill="#FFD500"/>
<path d="M12.0008 4.69566C13.7601 4.69566 15.376 5.32078 16.6382 6.36061C16.9496 6.61711 17.4022 6.59859 17.6874 6.31336L19.9032 4.09758C20.2268 3.77395 20.2038 3.24422 19.8581 2.94431C17.7433 1.10967 14.9918 0 12.0008 0C7.56362 0 3.68452 2.41673 1.61382 6.00558L5.68285 8.35092C6.94777 6.16969 9.30296 4.69566 12.0008 4.69566Z" fill="#FF4B26"/>
<path d="M16.6374 6.36061C16.9488 6.61711 17.4015 6.59859 17.6867 6.31336L19.9024 4.09758C20.226 3.77395 20.203 3.24422 19.8573 2.94431C17.7425 1.10963 14.991 0 12 0V4.69566C13.7592 4.69566 15.3752 5.32078 16.6374 6.36061Z" fill="#D93F21"/>
</g>
<defs>
<clipPath id="clip0_360_6043">
<rect width="24" height="24" fill="white"/>
</clipPath>
</defs>
</svg>
