<!-- <svg width="40" height="34" viewBox="0 0 40 34" fill="none" xmlns="http://www.w3.org/2000/svg">
<path d="M39.9284 31.7916L37.4439 21.8541C37.4053 21.6991 37.3446 21.5543 37.2675 21.4212C37.4095 21.0272 37.4875 20.6027 37.4875 20.1605V3.77919C37.4875 1.72501 35.8164 0.053833 33.7621 0.053833H6.23644C4.18199 0.053833 2.51091 1.72501 2.51091 3.77919V20.1603C2.51091 20.6026 2.58882 21.0271 2.73118 21.4211C2.654 21.5543 2.593 21.6989 2.55436 21.8539L0.0498224 31.8717C-0.0748137 32.3704 0.037277 32.8989 0.353731 33.304C0.670094 33.7094 1.15555 33.9462 1.66982 33.9462H38.3287C38.3293 33.9462 38.3299 33.9462 38.3303 33.9462C39.2525 33.9462 40 33.1986 40 32.2765C39.9999 32.1079 39.9749 31.9451 39.9284 31.7916ZM24.2306 31.3359C24.2302 31.3359 24.2298 31.336 24.2291 31.3359H15.7691C15.6715 31.3359 15.5788 31.2925 15.5163 31.2176C15.4537 31.1428 15.4274 31.044 15.4448 30.9477L16.1041 27.2889C16.1323 27.1319 16.269 27.0179 16.4284 27.0179H23.57C23.7295 27.0179 23.8661 27.1321 23.8943 27.2889L24.5481 30.9185C24.5559 30.9464 24.56 30.9758 24.56 31.0063C24.5602 31.1884 24.4126 31.3359 24.2306 31.3359ZM34.2336 20.1605C34.2336 20.3509 34.1199 20.5148 33.9572 20.5893H6.04108C5.87817 20.515 5.76445 20.3509 5.76445 20.1605V3.77919C5.76445 3.5191 5.97617 3.30755 6.23635 3.30755H33.762C34.0219 3.30755 34.2337 3.51901 34.2337 3.77919V20.1605H34.2336Z" fill="#707070"/>
</svg>
 -->

<svg width="60" height="60" viewBox="0 0 60 60" fill="none" xmlns="http://www.w3.org/2000/svg">
<g clip-path="url(#clip0_210_361)">
<path d="M59.8926 52.1877L56.1659 37.2814C56.1079 37.0489 56.0168 36.8318 55.9012 36.6322C56.1142 36.0412 56.2312 35.4044 56.2312 34.7411V10.1691C56.2312 7.08782 53.7246 4.58105 50.6432 4.58105H9.35467C6.27299 4.58105 3.76636 7.08782 3.76636 10.1691V34.7408C3.76636 35.4042 3.88322 36.041 4.09677 36.632C3.981 36.8318 3.8895 37.0486 3.83154 37.2811L0.0747336 52.3078C-0.112221 53.0559 0.0559155 53.8487 0.530596 54.4563C1.00514 55.0644 1.73332 55.4196 2.50473 55.4196H57.4931C57.4939 55.4196 57.4949 55.4196 57.4954 55.4196C58.8788 55.4196 60 54.2982 60 52.915C59.9999 52.6622 59.9624 52.418 59.8926 52.1877ZM36.3459 51.5042C36.3453 51.5042 36.3447 51.5044 36.3437 51.5042H23.6537C23.5073 51.5042 23.3682 51.439 23.2745 51.3267C23.1805 51.2145 23.1411 51.0664 23.1672 50.9218L24.1561 45.4337C24.1985 45.1982 24.4035 45.0272 24.6426 45.0272H35.3551C35.5942 45.0272 35.7992 45.1985 35.8415 45.4337L36.8222 50.878C36.8338 50.9199 36.8401 50.9641 36.8401 51.0098C36.8403 51.2829 36.6189 51.5042 36.3459 51.5042ZM51.3503 34.7411C51.3503 35.0266 51.1799 35.2725 50.9358 35.3843H9.06162C8.81726 35.2728 8.64667 35.0266 8.64667 34.7411V10.1691C8.64667 9.77895 8.96426 9.46164 9.35453 9.46164H50.643C51.0329 9.46164 51.3505 9.77882 51.3505 10.1691V34.7411H51.3503Z" fill="black"/>
<path d="M36.2735 10.9805C34.5078 10.9805 32.484 11.5764 30.4297 12.6494C31.5862 12.6828 32.6932 12.9103 33.7114 13.316C34.6214 13.0293 35.487 12.8752 36.2735 12.8752C37.3737 12.8752 38.2282 13.1716 38.8126 13.7564C39.8212 14.7647 39.968 16.6689 39.2148 18.9809C39.1717 19.1132 39.1253 19.2465 39.077 19.3802C39.3495 20.3203 39.4993 21.3223 39.5153 22.3601C39.5184 22.5808 39.4925 22.7992 39.4395 23.0111C40.1141 21.859 40.6474 20.6995 41.0163 19.5677C42.0125 16.5093 41.7054 13.9696 40.1524 12.4165C39.2128 11.4771 37.8717 10.9805 36.2735 10.9805Z" fill="black"/>
<path d="M23.7264 32.2629C22.6262 32.2629 21.7718 31.9664 21.1873 31.3816C20.1788 30.3732 20.0319 28.4694 20.7849 26.1571C20.8333 26.0084 20.8854 25.8593 20.9404 25.7097C20.6404 24.7138 20.4842 23.6524 20.4842 22.5542C20.4842 22.4525 20.4862 22.351 20.4887 22.25C19.848 23.3619 19.3389 24.479 18.9836 25.5704C17.9873 28.6287 18.2944 31.1684 19.8476 32.7215C20.7871 33.6609 22.1284 34.1572 23.7264 34.1572C25.4865 34.1572 27.5115 33.5716 29.5941 32.4789C28.4745 32.4217 27.4006 32.185 26.4068 31.7838C25.4456 32.0973 24.5371 32.2629 23.7264 32.2629Z" fill="black"/>
<path d="M30.1323 13.8042C27.762 13.8042 25.5984 14.6941 24.0399 16.3103C22.4943 17.9123 21.6436 20.1301 21.6436 22.5545C21.6436 24.9863 22.4938 27.211 24.0381 28.8186C25.5967 30.4412 27.7611 31.3345 30.1323 31.3345C32.7077 31.3345 35.0245 30.4013 36.6567 28.7072C37.1823 28.1612 37.1741 27.295 36.6378 26.7587L36.45 26.5709C36.1846 26.3057 35.8233 26.1609 35.4472 26.1642C35.0715 26.1698 34.7144 26.3265 34.4561 26.6C33.4327 27.683 31.897 28.2797 30.1323 28.2797C28.5903 28.2797 27.2061 27.7251 26.2339 26.7173C25.4979 25.9539 25.0075 24.941 24.8043 23.7905H36.9667C37.3392 23.7905 37.6962 23.641 37.9576 23.376C38.219 23.1103 38.3632 22.7514 38.3575 22.3785C38.3202 19.9721 37.492 17.7942 36.0256 16.247C34.5332 14.6715 32.4402 13.8042 30.1323 13.8042ZM24.9478 20.7361C25.2157 19.7709 25.703 18.9369 26.3882 18.2817C27.3617 17.3505 28.6563 16.8586 30.1323 16.8586C32.668 16.8586 34.4845 18.3124 35.0996 20.7361H24.9478Z" fill="black"/>
</g>
<defs>
<clipPath id="clip0_210_361">
<rect width="60" height="60" fill="white"/>
</clipPath>
</defs>
</svg>
