<svg width="100" height="100" viewBox="0 0 100 100" fill="none" xmlns="http://www.w3.org/2000/svg">
<path d="M57.565 50.0001C57.565 62.7108 47.2612 73.0129 34.5509 73.0129C21.8406 73.0129 11.5381 62.7103 11.5381 50.0001C11.5381 37.2908 21.8409 26.9873 34.5509 26.9873C47.2608 26.9873 57.565 37.2912 57.565 50.0001Z" fill="#D9222A"/>
<path d="M65.4469 26.9868C59.5008 26.9868 54.0825 29.2427 49.9982 32.944C49.1662 33.699 48.3895 34.5128 47.6745 35.3794H52.324C52.9607 36.1534 53.5466 36.9676 54.0785 37.8169H45.9201C45.4295 38.6017 44.9868 39.4155 44.5944 40.2539H55.4036C55.7745 41.0468 56.0999 41.8603 56.378 42.6903H43.62C43.3519 43.4896 43.1287 44.3032 42.9512 45.1273H57.046C57.3908 46.7286 57.5645 48.3621 57.5641 50.0002C57.5641 52.5558 57.1469 55.0146 56.3777 57.3104H43.6198C43.8972 58.1411 44.2223 58.9546 44.5935 59.7476H55.4033C55.0105 60.5861 54.5675 61.4 54.0768 62.1852H45.9198C46.4523 63.035 47.039 63.8491 47.6742 64.6205H52.3227C51.6086 65.4888 50.8317 66.3034 49.9984 67.058C54.083 70.7589 59.5007 73.0136 65.4471 73.0136C78.1571 73.0135 88.4612 62.7108 88.4612 50.0008C88.4612 37.2918 78.1573 26.988 65.4471 26.988" fill="#EE9F2D"/>
<path d="M85.395 62.828C85.395 62.4176 85.7273 62.0843 86.1381 62.0843C86.5489 62.0843 86.8812 62.4176 86.8812 62.828C86.8812 63.2382 86.5489 63.5715 86.1381 63.5715C85.7276 63.5714 85.3949 63.2384 85.395 62.828ZM86.1381 63.3932C86.4503 63.393 86.7031 63.14 86.7032 62.828C86.7032 62.5161 86.4504 62.2634 86.1386 62.2634H86.1381C85.8267 62.2629 85.574 62.5151 85.5735 62.8265V62.8282C85.5731 63.14 85.8256 63.393 86.1374 63.3933C86.1376 63.3932 86.1378 63.3932 86.1381 63.3932ZM86.0377 63.1547H85.8854V62.5016H86.1609C86.2186 62.5016 86.2773 62.5016 86.3282 62.5342C86.3812 62.5698 86.411 62.6329 86.411 62.698C86.411 62.7711 86.3678 62.8396 86.2978 62.8662L86.418 63.1547H86.2494L86.1494 62.8962H86.0378V63.1547H86.0377ZM86.0377 62.7842H86.1221C86.1536 62.7842 86.1867 62.7868 86.215 62.7714C86.2401 62.7553 86.253 62.7253 86.253 62.6965C86.253 62.6715 86.2376 62.6426 86.216 62.6303C86.1895 62.6135 86.1473 62.6174 86.1189 62.6174H86.0377V62.7842ZM29.1787 52.5197C28.9165 52.4893 28.8012 52.4811 28.621 52.4811C27.205 52.4811 26.4881 52.9669 26.4881 53.9257C26.4881 54.5169 26.8381 54.8932 27.3838 54.8932C28.4015 54.8932 29.135 53.9239 29.1787 52.5197ZM30.9955 56.75H28.9255L28.9731 55.7659C28.3417 56.5437 27.4992 56.9133 26.3545 56.9133C25.0004 56.9133 24.0719 55.8556 24.0719 54.3198C24.0719 52.0091 25.6868 50.6609 28.4587 50.6609C28.7418 50.6609 29.105 50.6865 29.4768 50.7338C29.5544 50.4209 29.5746 50.2869 29.5746 50.1184C29.5746 49.4892 29.1392 49.2546 27.972 49.2546C26.7499 49.2407 25.7418 49.5457 25.3278 49.682C25.354 49.5243 25.674 47.5464 25.674 47.5464C26.9191 47.1815 27.7403 47.0442 28.6644 47.0442C30.8096 47.0442 31.9459 48.0073 31.9438 49.8278C31.9479 50.3156 31.8673 50.9175 31.7413 51.7087C31.5244 53.0844 31.0592 56.0315 30.9955 56.75ZM23.0265 56.75H20.5281L21.9592 47.776L18.7637 56.75H17.0611L16.8509 47.8273L15.3465 56.75H13.0078L14.9614 45.0764H18.5537L18.7717 51.6105L20.9629 45.0764H24.9587L23.0265 56.75ZM68.5368 52.5197C68.2757 52.4893 68.1596 52.4811 67.9801 52.4811C66.5646 52.4811 65.8476 52.9669 65.8476 53.9257C65.8476 54.5169 66.1971 54.8932 66.7428 54.8932C67.7607 54.8932 68.4946 53.9239 68.5368 52.5197ZM70.3551 56.75H68.2853L68.3321 55.7659C67.7007 56.5437 66.8577 56.9133 65.7141 56.9133C64.3595 56.9133 63.4321 55.8556 63.4321 54.3198C63.4321 52.0091 65.0458 50.6609 67.8182 50.6609C68.1013 50.6609 68.464 50.6865 68.8354 50.7338C68.9128 50.4209 68.9332 50.2869 68.9332 50.1184C68.9332 49.4892 68.4983 49.2546 67.3312 49.2546C66.109 49.2407 65.1019 49.5457 64.6863 49.682C64.7126 49.5243 65.0336 47.5464 65.0336 47.5464C66.2789 47.1815 67.0994 47.0442 68.0223 47.0442C70.1686 47.0442 71.3049 48.0073 71.3028 49.8278C71.3069 50.3156 71.2263 50.9175 71.1003 51.7087C70.8846 53.0844 70.4182 56.0315 70.3551 56.75ZM42.1 56.6057C41.4162 56.8211 40.8831 56.9133 40.3051 56.9133C39.0278 56.9133 38.3308 56.1793 38.3308 54.8278C38.3126 54.4085 38.5145 53.3048 38.6731 52.2974C38.8173 51.4106 39.7564 45.8192 39.7564 45.8192H42.2399L41.9499 47.2562H43.4499L43.111 49.5378H41.6056C41.3172 51.3433 40.9064 53.5923 40.9017 53.8903C40.9017 54.3797 41.1628 54.5933 41.7568 54.5933C42.0415 54.5933 42.2621 54.5643 42.4305 54.5035L42.1 56.6057ZM49.7142 56.5288C48.8612 56.7894 48.038 56.9156 47.1656 56.9134C44.3858 56.9107 42.9365 55.4588 42.9365 52.6786C42.9365 49.4333 44.7801 47.0443 47.2827 47.0443C49.3301 47.0443 50.6378 48.3819 50.6378 50.4797C50.6378 51.1757 50.5481 51.8552 50.3318 52.8146H45.3863C45.2191 54.1918 46.1004 54.7655 47.5449 54.7655C48.434 54.7655 49.2356 54.5821 50.1272 54.1677L49.7142 56.5288ZM48.3185 50.9006C48.3322 50.7028 48.5818 49.2061 47.163 49.2061C46.3718 49.2061 45.8062 49.8092 45.5758 50.9006H48.3185ZM32.4954 50.2574C32.4954 51.4583 33.0776 52.2862 34.3981 52.9082C35.4099 53.3837 35.5664 53.5247 35.5664 53.9556C35.5664 54.5475 35.1203 54.8146 34.1315 54.8146C33.3864 54.8146 32.6931 54.6983 31.8933 54.4402C31.8933 54.4402 31.5647 56.5325 31.5497 56.6326C32.1177 56.7565 32.6241 56.8712 34.1497 56.9134C36.7859 56.9134 38.0033 55.9097 38.0033 53.7403C38.0033 52.4359 37.4937 51.6703 36.2422 51.0951C35.1946 50.6143 35.0744 50.5069 35.0744 50.0635C35.0744 49.5502 35.4895 49.2884 36.2972 49.2884C36.7876 49.2884 37.4574 49.3407 38.0921 49.4311L38.4478 47.2292C37.8009 47.1266 36.8201 47.0443 36.2491 47.0443C33.4542 47.0443 32.4868 48.5042 32.4954 50.2574ZM61.8659 47.2938C62.5599 47.2938 63.2068 47.4759 64.0983 47.9246L64.5069 45.391C64.141 45.2474 62.8526 44.4038 61.7613 44.4038C60.0892 44.4038 58.6759 45.2333 57.6818 46.6025C56.2318 46.1223 55.6358 47.0929 54.905 48.0598L54.256 48.211C54.3051 47.8927 54.3496 47.5764 54.3346 47.2564H52.0403C51.7268 50.1944 51.1712 53.1705 50.7363 56.1121L50.623 56.7501H53.1224C53.5396 54.0394 53.7683 52.3038 53.9072 51.1293L54.8485 50.6057C54.989 50.0827 55.4291 49.906 56.3121 49.9273C56.1933 50.5693 56.134 51.2209 56.1348 51.8739C56.1348 54.9797 57.8105 56.9134 60.5001 56.9134C61.193 56.9134 61.7876 56.8221 62.708 56.5728L63.1478 53.9112C62.3196 54.3189 61.64 54.5107 61.0246 54.5107C59.5723 54.5107 58.6935 53.4387 58.6935 51.6666C58.6933 49.0961 60.0005 47.2938 61.8659 47.2938Z" fill="black"/>
<path d="M23.7443 56.0563H21.2455L22.6775 47.0835L19.482 56.0563H17.7792L17.5687 47.1348L16.0644 56.0563H13.7256L15.6792 44.3843H19.2715L19.3725 51.6102L21.7961 44.3843H25.6765L23.7443 56.0563Z" fill="white"/>
<path d="M83.015 45.0767L82.4613 48.4495C81.7779 47.5505 81.0441 46.8999 80.0751 46.8999C78.8143 46.8999 77.6669 47.8555 76.9159 49.262C75.87 49.0451 74.7881 48.677 74.7881 48.677L74.7875 48.6856C74.8719 47.8994 74.9055 47.4196 74.8981 47.2567H72.6032C72.2908 50.1947 71.7352 53.1708 71.301 56.1124L71.1865 56.7504H73.6855C74.0231 54.5584 74.2817 52.7385 74.4718 51.2951C75.3255 50.5237 75.7528 49.8506 76.6155 49.8955C76.2336 50.8193 76.0097 51.8832 76.0097 52.9746C76.0097 55.3481 77.2106 56.9137 79.0269 56.9137C79.9424 56.9137 80.6449 56.5981 81.3302 55.8663L81.2133 56.7488H83.5765L85.4793 45.0767H83.015ZM79.8906 54.5564C79.0401 54.5564 78.6108 53.927 78.6108 52.685C78.6108 50.8192 79.4147 49.4959 80.5482 49.4959C81.4065 49.4959 81.8713 50.1502 81.8713 51.3559C81.8714 53.2381 81.0547 54.5564 79.8906 54.5564Z" fill="black"/>
<path d="M29.8958 51.8284C29.634 51.7982 29.5181 51.7899 29.3386 51.7899C27.9225 51.7899 27.2061 52.2756 27.2061 53.2344C27.2061 53.8247 27.5561 54.202 28.1009 54.202C29.1195 54.2019 29.853 53.2329 29.8958 51.8284ZM31.7136 56.0571H29.6436L29.6907 55.0747C29.0598 55.8508 28.2163 56.2221 27.0726 56.2221C25.7179 56.2221 24.79 55.1644 24.79 53.6287C24.79 51.3169 26.4043 49.9694 29.1767 49.9694C29.4599 49.9694 29.8231 49.9951 30.1944 50.0426C30.2718 49.7296 30.2921 49.5956 30.2921 49.4262C30.2921 48.797 29.8573 48.5634 28.69 48.5634C27.4673 48.5496 26.4599 48.8547 26.0453 48.9893C26.0714 48.8321 26.3914 46.8562 26.3914 46.8562C27.6362 46.4898 28.4582 46.3524 29.3813 46.3524C31.5272 46.3524 32.6639 47.3162 32.6618 49.1351C32.6656 49.6248 32.5843 50.2264 32.4588 51.0165C32.2425 52.3915 31.7767 55.3402 31.7136 56.0571ZM65.2239 44.6992L64.8147 47.2334C63.9236 46.7852 63.2762 46.6025 62.583 46.6025C60.7175 46.6025 59.4099 48.4048 59.4099 50.9752C59.4099 52.7471 60.289 53.8189 61.7411 53.8189C62.3565 53.8189 63.0354 53.6276 63.8634 53.2193L63.4249 55.8796C62.5039 56.1307 61.91 56.2221 61.2165 56.2221C58.5272 56.2221 56.8511 54.2883 56.8511 51.1825C56.8511 47.0094 59.1663 44.0928 62.4777 44.0928C63.5684 44.0929 64.8575 44.5555 65.2239 44.6992ZM69.2549 51.8284C68.9933 51.7982 68.8779 51.7899 68.6977 51.7899C67.2821 51.7899 66.5652 52.2756 66.5652 53.2344C66.5652 53.8247 66.915 54.202 67.4606 54.202C68.4781 54.2019 69.2121 53.2329 69.2549 51.8284ZM71.0727 56.0571H69.0022L69.0497 55.0747C68.4184 55.8508 67.5753 56.2221 66.4317 56.2221C65.0775 56.2221 64.1491 55.1644 64.1491 53.6287C64.1491 51.3169 65.7639 49.9694 68.5353 49.9694C68.819 49.9694 69.1817 49.9951 69.5534 50.0426C69.6304 49.7296 69.6512 49.5956 69.6512 49.4262C69.6512 48.797 69.2163 48.5634 68.0492 48.5634C66.827 48.5496 65.8189 48.8547 65.4044 48.9893C65.4306 48.8321 65.7511 46.8562 65.7511 46.8562C66.9958 46.4898 67.8172 46.3524 68.7403 46.3524C70.8867 46.3524 72.0229 47.3162 72.0202 49.1351C72.0245 49.6248 71.9439 50.2264 71.8177 51.0165C71.6021 52.3915 71.1352 55.3402 71.0727 56.0571ZM42.8176 55.9133C42.1332 56.1287 41.6002 56.2221 41.0227 56.2221C39.7454 56.2221 39.0484 55.488 39.0484 54.1367C39.0307 53.7161 39.2326 52.6135 39.3913 51.6062C39.5349 50.7183 40.4741 45.1276 40.4741 45.1276H42.9571L42.6675 46.5651H43.9421L43.6029 48.8456H42.324C42.0356 50.6521 41.6236 52.8993 41.6194 53.198C41.6194 53.6891 41.8812 53.901 42.4747 53.901C42.7593 53.901 42.9795 53.8732 43.1482 53.8123L42.8176 55.9133ZM50.432 55.8375C49.5794 56.0982 48.755 56.2238 47.8832 56.2221C45.1032 56.2194 43.6541 54.7675 43.6541 51.9871C43.6541 48.7408 45.4977 46.3525 48.0003 46.3525C50.0477 46.3525 51.3554 47.6896 51.3554 49.7884C51.3554 50.485 51.2657 51.1644 51.05 52.1233H46.1045C45.9371 53.5003 46.8185 54.0747 48.2631 54.0747C49.1516 54.0747 49.9539 53.8908 50.8448 53.4752L50.432 55.8375ZM49.0356 50.2078C49.0506 50.0106 49.2995 48.5133 47.88 48.5133C47.0895 48.5133 46.5238 49.118 46.2935 50.2078H49.0356ZM33.2125 49.5662C33.2125 50.7669 33.7948 51.5939 35.1153 52.2169C36.127 52.6923 36.2835 52.8338 36.2835 53.2643C36.2835 53.8562 35.837 54.1233 34.8493 54.1233C34.1035 54.1233 33.4102 54.0069 32.6099 53.7489C32.6099 53.7489 32.2825 55.8412 32.2676 55.9412C32.8343 56.0652 33.3412 56.1784 34.8668 56.2221C37.5036 56.2221 38.7206 55.2184 38.7206 53.0496C38.7206 51.7444 38.2115 50.9791 36.9593 50.4038C35.9122 49.922 35.7911 49.8162 35.7911 49.3723C35.7911 48.8594 36.2071 48.5956 37.0143 48.5956C37.5041 48.5956 38.174 48.6494 38.8097 48.7398L39.1649 46.5373C38.5186 46.4347 37.5379 46.3525 36.9667 46.3525C34.1713 46.3525 33.2045 47.8114 33.2125 49.5662ZM84.2958 56.0571H81.9321L82.0497 55.1734C81.3642 55.9064 80.6618 56.2221 79.7462 56.2221C77.9298 56.2221 76.7295 54.6564 76.7295 52.283C76.7295 49.1253 78.5912 46.4634 80.7948 46.4634C81.7638 46.4634 82.4974 46.8593 83.1799 47.7578L83.7344 44.385H86.1986L84.2958 56.0571ZM80.6106 53.8637C81.774 53.8637 82.5913 52.5453 82.5913 50.6646C82.5913 49.4588 82.1259 48.8044 81.2676 48.8044C80.1345 48.8044 79.3297 50.1271 79.3297 51.9935C79.3295 53.2353 79.7601 53.8637 80.6106 53.8637ZM73.323 46.5651C73.0103 49.5032 72.4547 52.4792 72.0202 55.4193L71.9059 56.0571H74.4048C75.2985 50.2526 75.5148 49.1191 76.9161 49.2611C77.1394 48.0732 77.5548 47.0325 77.8647 46.5074C76.8181 46.2894 76.2338 46.8808 75.4688 48.0042C75.5292 47.5187 75.6398 47.047 75.6179 46.5651H73.323ZM52.7563 46.5651C52.4427 49.5032 51.8871 52.4792 51.4529 55.4193L51.3391 56.0571H53.8391C54.7317 50.2526 54.9476 49.1191 56.348 49.2611C56.5724 48.0732 56.988 47.0325 57.2967 46.5074C56.2513 46.2894 55.6665 46.8808 54.9021 48.0042C54.9624 47.5187 55.072 47.047 55.0511 46.5651H52.7563ZM85.3935 55.3141C85.3935 54.902 85.7263 54.5705 86.1366 54.5705C86.5465 54.5701 86.8792 54.9021 86.8795 55.3121V55.3141C86.8794 55.7243 86.5468 56.0569 86.1366 56.0571C85.7263 56.0569 85.3938 55.7243 85.3935 55.3141ZM86.1366 55.8787C86.4484 55.8788 86.7011 55.6261 86.7011 55.3144V55.3142C86.7015 55.0023 86.4488 54.7493 86.1371 54.749H86.1366C85.8244 54.7492 85.5715 55.0021 85.5713 55.3142C85.5717 55.626 85.8247 55.8787 86.1366 55.8787ZM86.0361 55.6389H85.8838V54.9871H86.1599C86.2171 54.9871 86.2763 54.9882 86.3261 55.0197C86.3794 55.056 86.4099 55.118 86.4099 55.183C86.4099 55.2567 86.3666 55.3257 86.2961 55.3519L86.4167 55.6385H86.2476L86.1476 55.3811H86.0361V55.6385V55.6389ZM86.0361 55.2697H86.1199C86.1513 55.2697 86.1857 55.272 86.2134 55.2569C86.2384 55.2408 86.2512 55.2106 86.2512 55.1816C86.2501 55.1547 86.2365 55.1298 86.2144 55.1144C86.1883 55.0994 86.1449 55.1035 86.1166 55.1035H86.0359V55.2697H86.0361Z" fill="white"/>
</svg>
