<svg width="60" height="60" viewBox="0 0 100 100" fill="none" xmlns="http://www.w3.org/2000/svg">
<path d="M90.1837 38.957L95.3678 49.2638L84.4629 59.5859L90.1837 38.957Z" fill="#018C45"/>
<path d="M86.5793 38.957L91.7633 49.2638L80.8584 59.5859L86.5793 38.957Z" fill="#F47920"/>
<path d="M11.7793 45.1992H14.2947C15.1842 45.1992 15.8284 45.0765 16.2272 44.8158C16.626 44.555 16.9327 44.1102 17.1014 43.4661C17.2855 42.8066 17.2395 42.3618 16.9787 42.101C16.718 41.8403 16.0891 41.7176 15.1076 41.7176H12.7303L11.7793 45.1992ZM3.34375 55.828L8.5278 37.1777H16.81C19.402 37.1777 21.1198 37.5918 22.0094 38.4354C22.8836 39.279 23.0523 40.644 22.5309 42.5612C22.2088 43.6961 21.7333 44.6471 21.0585 45.3986C20.399 46.1501 19.5247 46.7483 18.4664 47.1777C19.3714 47.3925 19.9542 47.8219 20.2149 48.4814C20.4757 49.1256 20.445 50.0765 20.1229 51.3188L19.4941 53.9262V54.0029C19.31 54.7391 19.3714 55.1225 19.6628 55.1532L19.4787 55.8434H13.8806C13.8959 55.3986 13.9419 55.0152 13.9726 54.6777C14.0186 54.3403 14.0646 54.0796 14.1106 53.8955L14.6321 52.0397C14.8928 51.0734 14.9082 50.3986 14.6628 49.9998C14.4174 49.601 13.8652 49.4017 12.991 49.4017H10.6444L8.81921 55.828H3.34375ZM37.8683 42.0704L34.0493 55.828H29.4174L29.9849 53.8188C29.172 54.6164 28.3284 55.2299 27.4849 55.6133C26.6566 56.0121 25.7671 56.2115 24.8468 56.2115C24.0799 56.2115 23.4204 56.0734 22.899 55.7974C22.3622 55.5213 21.9634 55.1072 21.6873 54.555C21.4419 54.0796 21.3499 53.4814 21.3806 52.7606C21.4266 52.055 21.672 50.8741 22.1321 49.2176L24.1106 42.0704H29.1873L27.2088 49.1716C26.9174 50.2145 26.856 50.9507 26.9941 51.3342C27.1474 51.7329 27.5309 51.9477 28.1597 51.9477C28.8039 51.9477 29.3407 51.7176 29.7855 51.2422C30.2303 50.7667 30.583 50.0765 30.8438 49.1409L32.8069 42.055H37.8683V42.0704ZM44.4174 45.5673H46.2118C47.3622 45.5673 48.175 45.4293 48.6505 45.1532C49.1106 44.8771 49.4327 44.371 49.6321 43.6655C49.8315 42.9446 49.7855 42.4538 49.4787 42.1777C49.1873 41.9017 48.4511 41.7636 47.2548 41.7636H45.4757L44.4174 45.5673ZM36.0278 55.828L41.1965 37.1777H48.3131C49.8775 37.1777 51.1045 37.2698 51.9634 37.4691C52.8223 37.6685 53.5125 37.9753 54.0033 38.4201C54.6321 39.0029 55.0155 39.7237 55.1842 40.598C55.3376 41.4569 55.2456 42.4691 54.9235 43.6655C54.3407 45.7514 53.3284 47.3464 51.8867 48.4661C50.4296 49.5704 48.6352 50.1225 46.5033 50.1225H43.175L41.5799 55.828H36.0278ZM62.1168 49.6777C61.58 49.8925 60.8744 50.1072 60.0155 50.3219C58.6505 50.69 57.8836 51.1808 57.7149 51.779C57.5922 52.1624 57.6536 52.4691 57.8376 52.6992C58.0217 52.9139 58.3438 53.0213 58.8039 53.0213C59.6474 53.0213 60.3223 52.8066 60.8284 52.3925C61.3345 51.963 61.718 51.3035 61.9787 50.3833C62.0247 50.1839 62.0707 50.0458 62.0861 49.9385L62.1168 49.6777ZM60.8898 55.828L60.9358 54.5244C60.1229 55.1379 59.2947 55.598 58.4511 55.8894C57.6229 56.1808 56.7333 56.3342 55.7977 56.3342C54.356 56.3342 53.3591 55.9507 52.7763 55.1839C52.2088 54.4323 52.1168 53.3434 52.5002 51.9477C52.8683 50.5826 53.5431 49.5704 54.4941 48.9262C55.445 48.282 57.0401 47.8066 59.2793 47.5152C59.5554 47.4691 59.9388 47.4385 60.4143 47.3771C62.0707 47.1931 62.991 46.7483 63.1904 46.0274C63.2977 45.6287 63.2364 45.3372 62.991 45.1685C62.7609 44.9845 62.3161 44.8925 61.6873 44.8925C61.1658 44.8925 60.7364 44.9998 60.3836 45.2299C60.0309 45.4599 59.7701 45.7974 59.6014 46.2728H54.6628C55.1076 44.7237 56.0278 43.5581 57.3928 42.7759C58.7579 41.9783 60.5523 41.5949 62.7916 41.5949C63.8345 41.5949 64.7855 41.6869 65.6137 41.9017C66.4419 42.101 67.0554 42.3925 67.4389 42.7452C67.9296 43.19 68.2057 43.6808 68.2977 44.2329C68.3898 44.7851 68.2824 45.5826 68.0063 46.6102L65.8744 54.279C65.8131 54.5244 65.7977 54.7544 65.8284 54.9538C65.8744 55.1532 65.9511 55.3219 66.1045 55.4293L65.9971 55.8127H60.8898V55.828ZM66.0278 61.2575L67.1474 57.1777H68.6045C69.0953 57.1777 69.4634 57.0857 69.7395 56.9017C70.0155 56.7176 70.1996 56.4109 70.3069 55.9968C70.3683 55.8127 70.399 55.6287 70.4143 55.4139C70.4296 55.1839 70.4296 54.9385 70.4143 54.6624L69.6321 42.055H74.7701L74.6935 50.3986L79.172 42.055H83.9419L76.0125 55.7514C75.1076 57.2851 74.4634 58.328 74.0493 58.9109C73.6352 59.4783 73.2517 59.9231 72.8683 60.2145C72.3775 60.6287 71.8407 60.9201 71.2425 61.0888C70.6444 61.2575 69.7548 61.3495 68.5431 61.3495C68.1904 61.3495 67.7916 61.3495 67.3622 61.3188C66.9481 61.3188 66.4879 61.2882 66.0278 61.2575Z" fill="#29387E"/>
</svg>
