<svg width="46.43" height="40" viewBox="0 0 100 100" fill="none" xmlns="http://www.w3.org/2000/svg">
<path d="M37.5892 62.6579L41.8662 37.5604H48.7072L44.4271 62.6579H37.5892ZM69.1417 38.1015C67.7866 37.593 65.6626 37.0474 63.0107 37.0474C56.2511 37.0474 51.4896 40.4512 51.4492 45.3298C51.4108 48.9362 54.8484 50.948 57.443 52.1485C60.106 53.3786 61.001 54.1631 60.9884 55.2617C60.9716 56.9439 58.862 57.7125 56.8958 57.7125C54.1578 57.7125 52.7031 57.3321 50.4565 56.3951L49.5749 55.9963L48.6148 61.6147C50.2126 62.3152 53.1674 62.9221 56.2351 62.9535C63.4261 62.9535 68.094 59.5886 68.1474 54.3789C68.1729 51.5239 66.3504 49.3512 62.4037 47.5599C60.0126 46.399 58.5483 45.6242 58.5638 44.4486C58.5638 43.4054 59.8033 42.2898 62.4813 42.2898C64.7184 42.2552 66.339 42.743 67.6016 43.2513L68.2146 43.5411L69.1417 38.1015ZM86.7456 37.5601H81.4594C79.8219 37.5601 78.5963 38.0071 77.8772 39.6413L67.7178 62.6413H74.9012C74.9012 62.6413 76.0756 59.5487 76.3412 58.8698C77.1265 58.8698 84.1047 58.8806 85.1025 58.8806C85.3071 59.7592 85.9345 62.6413 85.9345 62.6413H92.2825L86.7456 37.5593V37.5601ZM78.3587 53.7665C78.9243 52.3204 81.0843 46.7507 81.0843 46.7507C81.0438 46.8176 81.6457 45.2976 81.9912 44.3553L82.4534 46.5193C82.4534 46.5193 83.7635 52.5102 84.0372 53.7665H78.3587ZM31.7817 37.5601L25.0843 54.6754L24.3706 51.1972C23.1238 47.1879 19.2392 42.844 14.8965 40.6693L21.0203 62.618L28.2583 62.6098L39.028 37.5598H31.7817" fill="#1A64A2"/>
<path d="M18.835 37.5586H7.8041L7.7168 38.0808C16.2986 40.1582 21.9771 45.1786 24.3347 51.2103L21.936 39.677C21.5219 38.0879 20.321 37.6136 18.8353 37.5581" fill="#F2AE14"/>
</svg>
