<svg width="40" height="40" viewBox="0 0 40 40" fill="none" xmlns="http://www.w3.org/2000/svg">
<path d="M30.666 19.9998C30.666 21.8378 32.1613 23.3332 33.9993 23.3332C35.8373 23.3332 37.3327 21.8378 37.3327 19.9998C37.3327 18.1618 35.8373 16.6665 33.9993 16.6665C32.1613 16.6665 30.666 18.1618 30.666 19.9998ZM35.9993 19.9998C35.9993 21.1025 35.102 21.9998 33.9993 21.9998C32.8967 21.9998 31.9993 21.1025 31.9993 19.9998C31.9993 18.8972 32.8967 17.9998 33.9993 17.9998C35.102 17.9998 35.9993 18.8972 35.9993 19.9998Z" fill="black"/>
<path d="M37.6827 4H33.6827H2.31733C1.03933 4 0 5.04 0 6.31733V33.6833C0 34.96 1.03933 36 2.31733 36H33.6833H37.6833C38.96 36 40 34.96 40 33.6827V26V24.6667V15.3333V14V6.31733C40 5.04 38.96 4 37.6827 4ZM2.31733 34.6667C1.77467 34.6667 1.33333 34.2253 1.33333 33.6827V6.31733C1.33333 5.77467 1.77467 5.33333 2.31733 5.33333H33.6833C34.2253 5.33333 34.6667 5.77467 34.6667 6.31733V14H34C30.692 14 28 16.6913 28 20C28 23.3087 30.692 26 34 26H34.6667V33.6827C34.6667 34.2253 34.2253 34.6667 33.6827 34.6667H2.31733ZM38.6667 33.6827C38.6667 34.2253 38.2253 34.6667 37.6827 34.6667H35.78C35.786 34.654 35.788 34.6393 35.794 34.6267C35.8373 34.53 35.868 34.4287 35.8973 34.3253C35.912 34.274 35.9333 34.226 35.9447 34.1727C35.98 34.0147 36 33.8513 36 33.6827V26H38.6667V33.6827ZM38.6667 24.6667H36H34.6667H34C31.4273 24.6667 29.3333 22.5727 29.3333 20C29.3333 17.4273 31.4273 15.3333 34 15.3333H34.6667H36H38.6667V24.6667ZM36 14V6.31733C36 6.14867 35.98 5.98533 35.9453 5.82733C35.934 5.77467 35.9127 5.726 35.898 5.67467C35.868 5.572 35.8373 5.47 35.7947 5.37333C35.7887 5.36067 35.7867 5.346 35.7807 5.33333H37.6833C38.2253 5.33333 38.6667 5.77467 38.6667 6.31733V14H36Z" fill="black"/>
<path d="M32.1933 27.42C32.0727 27.54 32 27.7126 32 27.8866C32 28.0666 32.0727 28.2333 32.1933 28.36C32.3193 28.486 32.4933 28.5533 32.6667 28.5533C32.84 28.5533 33.0133 28.486 33.14 28.36C33.26 28.2333 33.3333 28.0666 33.3333 27.8866C33.3333 27.7126 33.26 27.5393 33.14 27.42C32.8867 27.1666 32.44 27.1666 32.1933 27.42Z" fill="black"/>
<path d="M32.6667 29.6133C32.3 29.6133 32 29.9059 32 30.2799C32 30.6466 32.3 30.9466 32.6667 30.9466C33.0333 30.9466 33.3333 30.6466 33.3333 30.2799C33.3333 29.9059 33.0333 29.6133 32.6667 29.6133Z" fill="black"/>
<path d="M32.1933 32.1933C32.0727 32.3193 32 32.4933 32 32.6666C32 32.84 32.0727 33.0133 32.1933 33.1333C32.3193 33.26 32.486 33.3333 32.6667 33.3333C32.84 33.3333 33.0133 33.26 33.14 33.14C33.26 33.0133 33.3333 32.84 33.3333 32.6666C33.3333 32.4933 33.26 32.3193 33.14 32.1933C32.8867 31.9466 32.44 31.9466 32.1933 32.1933Z" fill="black"/>
<path d="M16.6667 33.3333C17.0349 33.3333 17.3333 33.0349 17.3333 32.6667C17.3333 32.2985 17.0349 32 16.6667 32C16.2985 32 16 32.2985 16 32.6667C16 33.0349 16.2985 33.3333 16.6667 33.3333Z" fill="black"/>
<path d="M14.0007 33.3333C14.3688 33.3333 14.6673 33.0349 14.6673 32.6667C14.6673 32.2985 14.3688 32 14.0007 32C13.6325 32 13.334 32.2985 13.334 32.6667C13.334 33.0349 13.6325 33.3333 14.0007 33.3333Z" fill="black"/>
<path d="M19.3337 33.3333C19.7019 33.3333 20.0003 33.0349 20.0003 32.6667C20.0003 32.2985 19.7019 32 19.3337 32C18.9655 32 18.667 32.2985 18.667 32.6667C18.667 33.0349 18.9655 33.3333 19.3337 33.3333Z" fill="black"/>
<path d="M8.66667 33.3333C9.03486 33.3333 9.33333 33.0349 9.33333 32.6667C9.33333 32.2985 9.03486 32 8.66667 32C8.29848 32 8 32.2985 8 32.6667C8 33.0349 8.29848 33.3333 8.66667 33.3333Z" fill="black"/>
<path d="M5.99967 33.3333C6.36786 33.3333 6.66634 33.0349 6.66634 32.6667C6.66634 32.2985 6.36786 32 5.99967 32C5.63148 32 5.33301 32.2985 5.33301 32.6667C5.33301 33.0349 5.63148 33.3333 5.99967 33.3333Z" fill="black"/>
<path d="M11.3327 33.3333C11.7009 33.3333 11.9993 33.0349 11.9993 32.6667C11.9993 32.2985 11.7009 32 11.3327 32C10.9645 32 10.666 32.2985 10.666 32.6667C10.666 33.0349 10.9645 33.3333 11.3327 33.3333Z" fill="black"/>
<path d="M27.3327 33.3333C27.7009 33.3333 27.9993 33.0349 27.9993 32.6667C27.9993 32.2985 27.7009 32 27.3327 32C26.9645 32 26.666 32.2985 26.666 32.6667C26.666 33.0349 26.9645 33.3333 27.3327 33.3333Z" fill="black"/>
<path d="M21.9997 33.3333C22.3679 33.3333 22.6663 33.0349 22.6663 32.6667C22.6663 32.2985 22.3679 32 21.9997 32C21.6315 32 21.333 32.2985 21.333 32.6667C21.333 33.0349 21.6315 33.3333 21.9997 33.3333Z" fill="black"/>
<path d="M30.0007 33.3333C30.3688 33.3333 30.6673 33.0349 30.6673 32.6667C30.6673 32.2985 30.3688 32 30.0007 32C29.6325 32 29.334 32.2985 29.334 32.6667C29.334 33.0349 29.6325 33.3333 30.0007 33.3333Z" fill="black"/>
<path d="M24.6667 33.3333C25.0349 33.3333 25.3333 33.0349 25.3333 32.6667C25.3333 32.2985 25.0349 32 24.6667 32C24.2985 32 24 32.2985 24 32.6667C24 33.0349 24.2985 33.3333 24.6667 33.3333Z" fill="black"/>
<path d="M2.86033 32.1933C2.74033 32.3193 2.66699 32.4933 2.66699 32.6666C2.66699 32.84 2.74033 33.0133 2.86033 33.14C2.98699 33.26 3.16033 33.3333 3.33366 33.3333C3.50699 33.3333 3.68033 33.26 3.80699 33.14C3.92699 33.0133 4.00033 32.84 4.00033 32.6666C4.00033 32.4933 3.92699 32.3193 3.80699 32.1933C3.55366 31.9466 3.11366 31.9466 2.86033 32.1933Z" fill="black"/>
<path d="M3.33366 10.533C3.70185 10.533 4.00033 10.2346 4.00033 9.86637C4.00033 9.49818 3.70185 9.19971 3.33366 9.19971C2.96547 9.19971 2.66699 9.49818 2.66699 9.86637C2.66699 10.2346 2.96547 10.533 3.33366 10.533Z" fill="black"/>
<path d="M3.33366 13.0667C3.70185 13.0667 4.00033 12.7683 4.00033 12.4001C4.00033 12.0319 3.70185 11.7334 3.33366 11.7334C2.96547 11.7334 2.66699 12.0319 2.66699 12.4001C2.66699 12.7683 2.96547 13.0667 3.33366 13.0667Z" fill="black"/>
<path d="M3.33366 23.2C3.70185 23.2 4.00033 22.9016 4.00033 22.5334C4.00033 22.1652 3.70185 21.8667 3.33366 21.8667C2.96547 21.8667 2.66699 22.1652 2.66699 22.5334C2.66699 22.9016 2.96547 23.2 3.33366 23.2Z" fill="black"/>
<path d="M3.33366 18.1331C3.70185 18.1331 4.00033 17.8347 4.00033 17.4665C4.00033 17.0983 3.70185 16.7998 3.33366 16.7998C2.96547 16.7998 2.66699 17.0983 2.66699 17.4665C2.66699 17.8347 2.96547 18.1331 3.33366 18.1331Z" fill="black"/>
<path d="M3.33366 15.5994C3.70185 15.5994 4.00033 15.301 4.00033 14.9328C4.00033 14.5646 3.70185 14.2661 3.33366 14.2661C2.96547 14.2661 2.66699 14.5646 2.66699 14.9328C2.66699 15.301 2.96547 15.5994 3.33366 15.5994Z" fill="black"/>
<path d="M3.33366 25.7332C3.70185 25.7332 4.00033 25.4348 4.00033 25.0666C4.00033 24.6984 3.70185 24.3999 3.33366 24.3999C2.96547 24.3999 2.66699 24.6984 2.66699 25.0666C2.66699 25.4348 2.96547 25.7332 3.33366 25.7332Z" fill="black"/>
<path d="M3.33366 20.6663C3.70185 20.6663 4.00033 20.3679 4.00033 19.9997C4.00033 19.6315 3.70185 19.333 3.33366 19.333C2.96547 19.333 2.66699 19.6315 2.66699 19.9997C2.66699 20.3679 2.96547 20.6663 3.33366 20.6663Z" fill="black"/>
<path d="M3.33366 28.2659C3.70185 28.2659 4.00033 27.9675 4.00033 27.5993C4.00033 27.2311 3.70185 26.9326 3.33366 26.9326C2.96547 26.9326 2.66699 27.2311 2.66699 27.5993C2.66699 27.9675 2.96547 28.2659 3.33366 28.2659Z" fill="black"/>
<path d="M3.33366 30.8001C3.70185 30.8001 4.00033 30.5017 4.00033 30.1335C4.00033 29.7653 3.70185 29.4668 3.33366 29.4668C2.96547 29.4668 2.66699 29.7653 2.66699 30.1335C2.66699 30.5017 2.96547 30.8001 3.33366 30.8001Z" fill="black"/>
<path d="M2.86033 6.8598C2.74033 6.9858 2.66699 7.15247 2.66699 7.33314C2.66699 7.50647 2.74033 7.6798 2.86033 7.7998C2.98699 7.92647 3.15366 7.9998 3.33366 7.9998C3.50699 7.9998 3.68033 7.92647 3.80699 7.80647C3.92699 7.6798 4.00033 7.50647 4.00033 7.33314C4.00033 7.1598 3.92699 6.9858 3.80699 6.8598C3.55366 6.61314 3.10699 6.61314 2.86033 6.8598Z" fill="black"/>
<path d="M27.3327 7.99984C27.7009 7.99984 27.9993 7.70136 27.9993 7.33317C27.9993 6.96498 27.7009 6.6665 27.3327 6.6665C26.9645 6.6665 26.666 6.96498 26.666 7.33317C26.666 7.70136 26.9645 7.99984 27.3327 7.99984Z" fill="black"/>
<path d="M30.0007 7.99984C30.3688 7.99984 30.6673 7.70136 30.6673 7.33317C30.6673 6.96498 30.3688 6.6665 30.0007 6.6665C29.6325 6.6665 29.334 6.96498 29.334 7.33317C29.334 7.70136 29.6325 7.99984 30.0007 7.99984Z" fill="black"/>
<path d="M19.3337 7.99984C19.7019 7.99984 20.0003 7.70136 20.0003 7.33317C20.0003 6.96498 19.7019 6.6665 19.3337 6.6665C18.9655 6.6665 18.667 6.96498 18.667 7.33317C18.667 7.70136 18.9655 7.99984 19.3337 7.99984Z" fill="black"/>
<path d="M21.9997 7.99984C22.3679 7.99984 22.6663 7.70136 22.6663 7.33317C22.6663 6.96498 22.3679 6.6665 21.9997 6.6665C21.6315 6.6665 21.333 6.96498 21.333 7.33317C21.333 7.70136 21.6315 7.99984 21.9997 7.99984Z" fill="black"/>
<path d="M16.6667 7.99984C17.0349 7.99984 17.3333 7.70136 17.3333 7.33317C17.3333 6.96498 17.0349 6.6665 16.6667 6.6665C16.2985 6.6665 16 6.96498 16 7.33317C16 7.70136 16.2985 7.99984 16.6667 7.99984Z" fill="black"/>
<path d="M24.6667 7.99984C25.0349 7.99984 25.3333 7.70136 25.3333 7.33317C25.3333 6.96498 25.0349 6.6665 24.6667 6.6665C24.2985 6.6665 24 6.96498 24 7.33317C24 7.70136 24.2985 7.99984 24.6667 7.99984Z" fill="black"/>
<path d="M11.3327 7.99984C11.7009 7.99984 11.9993 7.70136 11.9993 7.33317C11.9993 6.96498 11.7009 6.6665 11.3327 6.6665C10.9645 6.6665 10.666 6.96498 10.666 7.33317C10.666 7.70136 10.9645 7.99984 11.3327 7.99984Z" fill="black"/>
<path d="M8.66667 7.99984C9.03486 7.99984 9.33333 7.70136 9.33333 7.33317C9.33333 6.96498 9.03486 6.6665 8.66667 6.6665C8.29848 6.6665 8 6.96498 8 7.33317C8 7.70136 8.29848 7.99984 8.66667 7.99984Z" fill="black"/>
<path d="M5.99967 7.99984C6.36786 7.99984 6.66634 7.70136 6.66634 7.33317C6.66634 6.96498 6.36786 6.6665 5.99967 6.6665C5.63148 6.6665 5.33301 6.96498 5.33301 7.33317C5.33301 7.70136 5.63148 7.99984 5.99967 7.99984Z" fill="black"/>
<path d="M14.0007 7.99984C14.3688 7.99984 14.6673 7.70136 14.6673 7.33317C14.6673 6.96498 14.3688 6.6665 14.0007 6.6665C13.6325 6.6665 13.334 6.96498 13.334 7.33317C13.334 7.70136 13.6325 7.99984 14.0007 7.99984Z" fill="black"/>
<path d="M32.6667 7.9998C32.84 7.9998 33.0133 7.92647 33.14 7.80647C33.26 7.6798 33.3333 7.50647 33.3333 7.33314C33.3333 7.15247 33.26 6.9858 33.14 6.8598C32.8867 6.61314 32.44 6.61314 32.1933 6.8598C32.0727 6.9858 32 7.1598 32 7.33314C32 7.50647 32.0727 7.6798 32.1933 7.7998C32.3193 7.92647 32.486 7.9998 32.6667 7.9998Z" fill="black"/>
<path d="M32.6667 10.3867C33.0333 10.3867 33.3333 10.0934 33.3333 9.72006C33.3333 9.35339 33.0333 9.06006 32.6667 9.06006C32.3 9.06006 32 9.35339 32 9.72006C32 10.0934 32.3 10.3867 32.6667 10.3867Z" fill="black"/>
<path d="M32.6667 12.7796C32.8467 12.7796 33.0133 12.7063 33.14 12.5796C33.26 12.4589 33.3333 12.2863 33.3333 12.1129C33.3333 11.9323 33.26 11.7656 33.14 11.6396C32.8933 11.3929 32.44 11.3929 32.2 11.6396C32.0733 11.7596 32 11.9323 32 12.1129C32 12.2929 32.0727 12.4596 32.1933 12.5796C32.3193 12.7063 32.486 12.7796 32.6667 12.7796Z" fill="black"/>
</svg>
