<svg width="20" height="18" viewBox="0 0 20 18" fill="none" xmlns="http://www.w3.org/2000/svg">
<path d="M0 6.5V1C0 0.734784 0.105357 0.48043 0.292893 0.292893C0.48043 0.105357 0.734784 0 1 0H19C19.2652 0 19.5196 0.105357 19.7071 0.292893C19.8946 0.48043 20 0.734784 20 1V6.5C19.337 6.5 18.7011 6.76339 18.2322 7.23223C17.7634 7.70107 17.5 8.33696 17.5 9C17.5 9.66304 17.7634 10.2989 18.2322 10.7678C18.7011 11.2366 19.337 11.5 20 11.5V17C20 17.2652 19.8946 17.5196 19.7071 17.7071C19.5196 17.8946 19.2652 18 19 18H1C0.734784 18 0.48043 17.8946 0.292893 17.7071C0.105357 17.5196 0 17.2652 0 17V11.5C0.663041 11.5 1.29893 11.2366 1.76777 10.7678C2.23661 10.2989 2.5 9.66304 2.5 9C2.5 8.33696 2.23661 7.70107 1.76777 7.23223C1.29893 6.76339 0.663041 6.5 0 6.5ZM12 2H2V4.968C2.75121 5.3403 3.38347 5.91505 3.8255 6.62746C4.26754 7.33987 4.50176 8.1616 4.50176 9C4.50176 9.8384 4.26754 10.6601 3.8255 11.3725C3.38347 12.085 2.75121 12.6597 2 13.032V16H12V2ZM14 2V16H18V13.032C17.2488 12.6597 16.6165 12.085 16.1745 11.3725C15.7325 10.6601 15.4982 9.8384 15.4982 9C15.4982 8.1616 15.7325 7.33987 16.1745 6.62746C16.6165 5.91505 17.2488 5.3403 18 4.968V2H14Z" fill="#555555"/>
</svg>
