<svg width="6" height="10" viewBox="0 0 6 10" fill="none" xmlns="http://www.w3.org/2000/svg">
<path d="M0.13356 0.117677C0.0479359 0.19461 0 0.297887 0 0.40543C0 0.512973 0.0479359 0.61625 0.13356 0.693183L4.91726 5L0.13356 9.30596C0.0479359 9.38289 0 9.48617 0 9.59371C0 9.70125 0.0479359 9.80453 0.13356 9.88146C0.175179 9.91898 0.22494 9.94879 0.279905 9.96915C0.33487 9.98951 0.393925 10 0.453586 10C0.513246 10 0.572302 9.98951 0.627267 9.96915C0.682232 9.94879 0.731993 9.91898 0.773612 9.88146L5.86065 5.30068C5.95 5.22023 6 5.11234 6 5C6 4.88766 5.95 4.77977 5.86065 4.69932L0.773612 0.118539C0.731993 0.0810246 0.682232 0.0512078 0.627267 0.0308485C0.572302 0.0104892 0.513246 0 0.453586 0C0.393925 0 0.33487 0.0104892 0.279905 0.0308485C0.22494 0.0512078 0.175179 0.0810246 0.13356 0.118539V0.117677Z" fill="black"/>
</svg>
