<svg width="24" height="24" viewBox="0 0 24 24" fill="none" xmlns="http://www.w3.org/2000/svg">
<path d="M19.8174 15.5071C19.2997 15.0945 18.8464 14.6214 18.4698 14.1006C18.0586 13.3818 17.8122 12.5968 17.745 11.7917V9.42037C17.7485 8.15579 17.2354 6.93357 16.3021 5.98336C15.3688 5.03314 14.0795 4.42033 12.6765 4.26007V3.64084C12.6765 3.47088 12.601 3.30788 12.4666 3.1877C12.3321 3.06752 12.1498 3 11.9597 3C11.7696 3 11.5873 3.06752 11.4529 3.1877C11.3185 3.30788 11.243 3.47088 11.243 3.64084V4.26967C9.85249 4.44149 8.57878 5.058 7.65773 6.00502C6.73669 6.95205 6.23073 8.1654 6.23356 9.42037V11.7917C6.16631 12.5968 5.91988 13.3818 5.50872 14.1006C5.13873 14.6202 4.69272 15.0932 4.18255 15.5071C4.12528 15.5521 4.07938 15.6075 4.0479 15.6695C4.01643 15.7316 4.0001 15.799 4 15.8671V16.52C4 16.6473 4.05657 16.7694 4.15726 16.8594C4.25795 16.9494 4.39451 17 4.53691 17H19.4631C19.6055 17 19.7421 16.9494 19.8427 16.8594C19.9434 16.7694 20 16.6473 20 16.52V15.8671C19.9999 15.799 19.9836 15.7316 19.9521 15.6695C19.9206 15.6075 19.8747 15.5521 19.8174 15.5071ZM5.11678 16.0399C5.61633 15.6085 6.05616 15.125 6.42685 14.5999C6.94476 13.7317 7.24694 12.7738 7.31275 11.7917V9.42037C7.29146 8.85779 7.39701 8.29714 7.62311 7.77179C7.84922 7.24645 8.19125 6.76715 8.62886 6.36245C9.06646 5.95775 9.59068 5.63591 10.1703 5.41611C10.7499 5.19631 11.3731 5.08303 12.0027 5.08303C12.6323 5.08303 13.2555 5.19631 13.8351 5.41611C14.4147 5.63591 14.9389 5.95775 15.3765 6.36245C15.8141 6.76715 16.1562 7.24645 16.3823 7.77179C16.6084 8.29714 16.7139 8.85779 16.6926 9.42037V11.7917C16.7584 12.7738 17.0606 13.7317 17.5785 14.5999C17.9492 15.125 18.389 15.6085 18.8886 16.0399H5.11678Z" fill="#4A4A4A"/>
<path d="M12.0047 20.9998C12.4837 20.9882 12.9434 20.7996 13.3025 20.4671C13.6615 20.1347 13.8968 19.68 13.9667 19.1833H9.96667C10.0385 19.6935 10.2848 20.1589 10.6597 20.493C11.0346 20.8271 11.5125 21.0072 12.0047 20.9998Z" fill="#4A4A4A"/>
</svg>
