<svg width="24" height="24" viewBox="0 0 24 24" fill="none" xmlns="http://www.w3.org/2000/svg">
<path d="M6.03012 9.42072H6.86694V10.5256H6.03012V9.42072ZM7.42259 9.42072H8.25941V10.5256H7.42259V9.42072ZM8.77573 9.42072H9.61255V10.5256H8.77573V9.42072ZM10.169 9.42072H11.0059V10.5256H10.169V9.42072ZM11.5623 9.42072H12.3992V10.5256H11.5623V9.42072ZM12.9548 9.42072H13.7916V10.5256H12.9548V9.42072ZM14.3481 9.42072H15.1849V10.5256H14.3481V9.42072ZM6.03012 10.9992H6.86694V12.1041H6.03012V10.9992ZM7.42259 10.9992H8.25941V12.1041H7.42259V10.9992ZM8.77573 10.9992H9.61255V12.1041H8.77573V10.9992ZM10.169 10.9992H11.0059V12.1041H10.169V10.9992ZM11.5623 10.9992H12.3992V12.1041H11.5623V10.9992ZM12.9548 10.9992H13.7916V12.1041H12.9548V10.9992ZM14.3481 10.9992H15.1849V12.1041H14.3481V10.9992ZM6.03012 12.5789H6.86694V13.6837H6.03012V12.5789ZM7.42259 12.5789H8.25941V13.6837H7.42259V12.5789ZM8.77573 12.5789H9.61255V13.6837H8.77573V12.5789ZM10.169 12.5789H11.0059V13.6837H10.169V12.5789ZM11.5623 12.5789H12.3992V13.6837H11.5623V12.5789ZM12.9548 12.5789H13.7916V13.6837H12.9548V12.5789ZM6.03012 14.1574H6.86694V15.2622H6.03012V14.1574ZM7.42259 14.1574H8.25941V15.2622H7.42259V14.1574ZM8.77573 14.1574H9.61255V15.2622H8.77573V14.1574ZM10.169 14.1574H11.0059V15.2622H10.169V14.1574ZM11.5623 14.1574H12.3992V15.2622H11.5623V14.1574ZM12.9548 14.1574H13.7916V15.2622H12.9548V14.1574ZM6.03012 15.737H6.86694V16.8418H6.03012V15.737ZM7.42259 15.737H8.25941V16.8418H7.42259V15.737ZM8.77573 15.737H9.61255V16.8418H8.77573V15.737Z" fill="#4A4A4A"/>
<path d="M17.1741 11.8948V5.47279C17.1741 5.31526 17.0937 5.2106 16.9749 5.2106H16.0192V4.26219C16.0192 4.10466 15.9397 4 15.8209 4C15.7013 4 15.6218 4.10466 15.6218 4.26219V5.2106H14.7063V4.26219C14.7063 4.10466 14.6268 4 14.5071 4C14.3874 4 14.3079 4.10466 14.3079 4.26219V5.2106H13.3925V4.26219C13.3925 4.10466 13.313 4 13.1941 4C13.0745 4 12.995 4.10466 12.995 4.26219V5.2106H12.0795V4.26219C12.0795 4.10466 12 4 11.8803 4C11.7607 4 11.6812 4.15753 11.6812 4.26219V5.2106H10.7657V4.26219C10.7657 4.10466 10.6862 4 10.5665 4C10.4477 4 10.3682 4.10466 10.3682 4.26219V5.2106H9.45272V4.26219C9.45272 4.10466 9.37322 4 9.25356 4C9.13389 4 9.05439 4.10466 9.05439 4.26219V5.2106H8.13975V4.26219C8.13975 4.10466 8.06025 4 7.94059 4C7.82176 4 7.74226 4.10466 7.74226 4.26219V5.2106H6.82594V4.26219C6.82594 4.10466 6.74644 4 6.62678 4C6.50711 4 6.46778 4.15753 6.46778 4.26219V5.2106H5.59163V4.26219C5.59163 4.10466 5.51213 4 5.39331 4C5.27364 4 5.19414 4.15753 5.19414 4.26219V5.2106H4.19833C4.11966 5.2106 4 5.31526 4 5.47279V18.21C4 18.3686 4.0795 18.4733 4.19916 18.4733H14.4669C15.0243 19.4206 15.9004 20 16.8954 20C18.6067 20 20 18.1582 20 15.8945C20 13.7895 18.7657 12.0523 17.1741 11.8948ZM15.0243 18.4733L14.8259 18.21C14.7858 18.1053 14.7063 18.0525 14.6669 17.9467C14.3491 17.3613 14.182 16.6619 14.1891 15.9474C14.1891 15.5784 14.2285 15.2105 14.3079 14.8943C14.3874 14.6311 14.4669 14.4207 14.5473 14.1574C14.6268 13.9999 14.7063 13.7895 14.8259 13.6309C14.9054 13.4733 15.0243 13.3676 15.1439 13.2101C15.5925 12.7204 16.1495 12.4258 16.7356 12.3685H17.1339C18.487 12.526 19.5615 14.0517 19.5615 15.8945C19.5615 17.8421 18.3674 19.4735 16.8552 19.4735C16.1791 19.5263 15.5021 19.1055 15.0243 18.4733ZM4.39916 17.9467V5.73606H5.15481V6.42012C5.15481 6.57873 5.23431 6.68339 5.35397 6.68339C5.47364 6.68339 5.55314 6.57873 5.55314 6.42012V5.73606H6.46862V6.42012C6.46862 6.57873 6.54812 6.68339 6.66778 6.68339C6.78661 6.68339 6.86611 6.57873 6.86611 6.42012V5.73606H7.78159V6.42012C7.78159 6.57873 7.86109 6.68339 7.98075 6.68339C8.10042 6.68339 8.17992 6.57873 8.17992 6.42012V5.73606H9.0954V6.42012C9.0954 6.57873 9.1749 6.68339 9.29456 6.68339C9.41339 6.68339 9.49289 6.57873 9.49289 6.42012V5.73606H10.4084V6.42012C10.4084 6.57873 10.4879 6.68339 10.6075 6.68339C10.7272 6.68339 10.8067 6.57873 10.8067 6.42012V5.73606H11.682V6.42012C11.682 6.57873 11.7615 6.68339 11.8812 6.68339C12.0008 6.68339 12.0803 6.57873 12.0803 6.42012V5.73606H12.9958V6.42012C12.9958 6.57873 13.0753 6.68339 13.195 6.68339C13.3138 6.68339 13.3933 6.57873 13.3933 6.42012V5.73606H14.3088V6.42012C14.3088 6.57873 14.3883 6.68339 14.5079 6.68339C14.6276 6.68339 14.7071 6.57873 14.7071 6.42012V5.73606H15.6226V6.42012C15.6226 6.57873 15.7021 6.68339 15.8218 6.68339C15.9406 6.68339 16.0201 6.57873 16.0201 6.42012V5.73606H16.7766V11.8419C16.2098 11.8933 15.6623 12.1286 15.1849 12.526H14.3481V13.6309C14.0105 14.3056 13.831 15.0916 13.831 15.8945C13.831 16.6315 13.99 17.3155 14.2293 17.8949H4.39916V17.9467Z" fill="#4A4A4A"/>
<path d="M18.0895 14.4207C18.0895 14.2631 18.0092 14.1574 17.8904 14.1574H15.9389C15.8201 14.1574 15.7397 14.2631 15.7397 14.4207C15.7397 14.5782 15.8201 14.6839 15.9389 14.6839H16.4569C16.5757 14.6839 16.6552 14.7368 16.7347 14.7897V14.8943H15.8996C15.7799 14.8943 15.7004 15.0001 15.7004 15.1576C15.7004 15.3151 15.7799 15.4209 15.8996 15.4209H16.9339V15.6313C16.9024 15.7664 16.8308 15.88 16.7347 15.9474C16.6485 16.0061 16.554 16.0417 16.4569 16.0521C16.3595 16.0418 16.2647 16.0062 16.1782 15.9474H16.0184H15.9791C15.9791 15.9474 15.9389 15.9474 15.9389 16.0003V16.0521L15.8996 16.106V16.3682C15.8996 16.3682 15.8996 16.4211 15.9389 16.4211L16.7347 17.6317L16.9339 17.9467L17.0535 18.1053C17.0929 18.1582 17.0929 18.1582 17.133 18.1582H17.2125C17.2527 18.1582 17.292 18.1582 17.3322 18.1043C17.3509 18.0802 17.3658 18.0516 17.3759 18.0202C17.3861 17.9887 17.3913 17.9549 17.3913 17.9208C17.3913 17.8868 17.3861 17.853 17.3759 17.8215C17.3658 17.7901 17.3509 17.7615 17.3322 17.7374L17.133 17.4213L16.9339 17.1051L16.7347 16.789L16.5757 16.5786C16.6159 16.5786 16.6552 16.5257 16.7347 16.5257C16.8151 16.474 16.8544 16.474 16.9339 16.4211C17.0134 16.3682 17.0929 16.2625 17.133 16.2107C17.2527 16.0003 17.3715 15.7359 17.3715 15.4738H17.8494C17.969 15.4738 18.0485 15.368 18.0485 15.2105C18.0485 15.0519 17.969 14.9472 17.8494 14.9472H17.292C17.2527 14.8415 17.2527 14.7897 17.2125 14.7368H17.8494C18.0084 14.6839 18.0887 14.5782 18.0887 14.4207H18.0895Z" fill="#4A4A4A"/>
</svg>
