<svg width="101" height="20" viewBox="0 0 101 20" fill="none" xmlns="http://www.w3.org/2000/svg">
<path fill-rule="evenodd" clip-rule="evenodd" d="M77.2411 0.0567932C77.1928 0.0567932 77.1444 0.0573187 77.0966 0.0583713C76.0633 0.0973187 75.3578 0.353109 74.9411 0.839424C74.3311 1.55206 74.3422 2.75627 74.3539 4.031C74.3556 4.21206 74.3572 4.39574 74.3572 4.58048V4.71574H73.3072V6.87205H74.3572V15.7936H77.0422V6.87258H77.8683C79.0417 6.87258 79.9033 5.97363 79.9617 4.71574H77.0422V3.26837C77.0422 2.58732 77.5061 2.14679 78.2233 2.14679C78.7933 2.14679 79.4789 2.44469 79.8011 3.01627C80.2705 2.4489 80.3939 1.88364 80.1567 1.37206C79.7917 0.585214 78.62 0.0567932 77.2411 0.0567932ZM86.0739 4.43048C85.1656 4.47153 84.3611 5.06521 83.8644 6.06048L83.595 6.59995V4.69363H81.3211V15.7936H84.0055V11.3373C84.0055 10.7605 84.0055 10.0426 84.0517 9.3389C84.2017 7.71048 85.5022 6.83416 86.6494 6.83416C87.2694 6.83416 87.7639 7.09153 88.0122 7.53206C88.455 7.12258 88.6017 6.44364 88.3744 5.78522C88.0806 4.93364 87.2939 4.42469 86.2705 4.42469C86.2066 4.42469 86.1406 4.42679 86.0739 4.43048ZM69.5222 4.43048C68.6139 4.47153 67.8089 5.06521 67.3128 6.06048L67.0433 6.59995V4.69363H64.7689V15.7936H67.4539V11.3373C67.4539 10.7605 67.4539 10.0426 67.5 9.3389C67.65 7.71048 68.9511 6.83416 70.0983 6.83416C70.7172 6.83416 71.2128 7.09153 71.4605 7.53206C71.9033 7.12258 72.0506 6.44364 71.8233 5.78522C71.5289 4.93364 70.7428 4.42469 69.7183 4.42469C69.6544 4.42469 69.5889 4.42679 69.5222 4.43048ZM52.7944 12.7463C53.7278 14.8357 55.7061 16.0336 58.2222 16.0336C60.4322 16.0336 62.0028 15.301 63.1494 13.7299L60.9906 12.7257C60.2417 13.4231 59.2294 13.8215 58.1961 13.8215C57.9744 13.8215 57.7532 13.8029 57.535 13.7657C55.9472 13.5089 54.7878 11.9273 54.8383 10.0868C54.8833 8.13942 56.3739 6.59732 58.3055 6.50047C58.3667 6.49784 58.4278 6.49574 58.4878 6.49574C59.9572 6.49574 61.0233 7.43574 61.0611 8.27942C61.0928 8.981 60.4456 9.45521 59.33 9.54784C58.9883 9.57995 58.58 9.61363 58.1667 9.61363C57.2189 9.61363 56.4861 9.42732 55.9356 9.04416C55.7261 9.64732 55.7778 10.1947 56.0883 10.6363C56.5411 11.2784 57.5033 11.6468 58.7305 11.6468C59.2855 11.6468 59.8789 11.5721 60.4933 11.4247C62.8628 10.8647 63.5133 9.17258 63.3511 7.89363C63.14 6.22574 61.5233 4.43048 58.4733 4.43048C56.6061 4.43048 54.9972 5.02943 53.9417 6.11574C52.2705 7.79364 51.7994 10.5199 52.7944 12.7468V12.7463ZM15.0194 6.11574C13.3478 7.79364 12.8767 10.5199 13.8722 12.7473C14.8055 14.8357 16.7839 16.0336 19.2989 16.0336C21.51 16.0336 23.08 15.301 24.2267 13.7299L22.0678 12.7257C21.3194 13.4231 20.3067 13.8215 19.2744 13.8215C19.0511 13.8215 18.8289 13.8031 18.6128 13.7657C17.025 13.5089 15.865 11.9273 15.9155 10.0868C15.9611 8.13942 17.4517 6.59732 19.3833 6.50047C19.4444 6.49784 19.5055 6.49574 19.565 6.49574C21.0344 6.49574 22.1005 7.43574 22.1383 8.27942C22.17 8.981 21.5228 9.45521 20.4072 9.54784C20.0655 9.57995 19.6583 9.61363 19.2444 9.61363C18.2967 9.61363 17.5639 9.42732 17.0133 9.04416C16.8033 9.64732 16.8555 10.1947 17.1661 10.6363C17.6183 11.2784 18.5811 11.6468 19.8083 11.6468C20.3628 11.6468 20.9561 11.5721 21.5711 11.4247C23.9394 10.8647 24.5911 9.17258 24.4289 7.89363C24.2172 6.22574 22.6005 4.43048 19.55 4.43048C17.6833 4.43048 16.0744 5.02943 15.0194 6.11574ZM41.9639 5.94469L41.7239 6.17416V4.75469L41.6467 4.75364C40.4017 4.75364 39.0611 5.42469 39.0611 6.89837V20.0568H41.7239V11.2494C41.7239 9.90732 42.0378 6.78469 44.9472 6.78469C47.2267 6.78469 48.265 8.56205 48.265 10.2131C48.265 11.9368 47.125 13.6815 44.9472 13.6815C44.4261 13.6815 43.2061 13.5999 42.5189 12.8873C42.3505 13.3694 42.3717 14.1136 42.7494 14.7436C43.0783 15.2915 43.795 15.9568 45.34 16.0121C45.3883 16.0136 45.4372 16.0147 45.4861 16.0147C46.8639 16.0147 48.2378 15.4252 49.2561 14.3963C50.3317 13.31 50.9239 11.8436 50.9239 10.2663C50.9239 6.49995 48.1711 4.46784 45.5811 4.46784C44.25 4.46784 42.9655 4.99258 41.9644 5.94469H41.9639ZM28.7506 5.94469L28.5089 6.17416V4.75469L28.4328 4.75364C27.1872 4.75364 25.8467 5.42469 25.8467 6.89837V20.0568H28.5089V11.2494C28.5089 9.90732 28.8233 6.78469 31.7328 6.78469C34.0128 6.78469 35.0511 8.56205 35.0511 10.2131C35.0511 11.9368 33.9111 13.6815 31.7328 13.6815C31.2117 13.6815 29.9917 13.5999 29.305 12.8873C29.1367 13.3694 29.1578 14.1131 29.535 14.7426C29.8639 15.2915 30.5805 15.9568 32.1261 16.0126C32.1739 16.0136 32.2228 16.0147 32.2717 16.0147C33.6494 16.0147 35.0233 15.4252 36.0422 14.3963C37.1178 13.3105 37.71 11.8436 37.71 10.2663C37.71 6.49995 34.9572 4.46784 32.3667 4.46784C31.0361 4.46784 29.7517 4.99258 28.7506 5.94469ZM3.01888 5.94469L2.77777 6.17416V4.75469L2.7011 4.75364C1.45555 4.75364 0.11499 5.42521 0.11499 6.8989V20.0568H2.77777V11.2494C2.77777 9.90732 3.09166 6.78469 6.0011 6.78469C8.28055 6.78469 9.31888 8.56205 9.31888 10.2131C9.31888 11.9368 8.17888 13.6815 6.0011 13.6815C5.47999 13.6815 4.25944 13.5999 3.57222 12.8873C3.40444 13.3694 3.42611 14.1136 3.80333 14.7436C4.13222 15.2915 4.84832 15.9568 6.39499 16.0121C6.44221 16.0136 6.49165 16.0147 6.54054 16.0147C7.91721 16.0147 9.29166 15.4252 10.3105 14.3963C11.3861 13.31 11.9783 11.8436 11.9783 10.2663C11.9783 6.49995 9.22499 4.46784 6.63499 4.46784C5.30388 4.46784 4.01999 4.99258 3.01832 5.94469H3.01888ZM97.4533 4.71574C97.455 5.83311 97.4644 13.4921 97.4644 14.3989C97.4644 16.4978 96.2783 17.6094 93.9383 17.7047C93.8883 17.7063 93.8383 17.7073 93.7894 17.7073C92.4861 17.7073 90.7978 17.1742 89.9667 16.0115C89.7183 17.0473 89.8639 17.9184 90.4011 18.6047C91.1128 19.5142 92.5167 20.0357 94.2522 20.0357C97.9783 20.0357 100.115 18.0368 100.115 14.5515V4.71626H97.4539L97.4533 4.71574ZM89.8733 4.71574V11.9931C89.8733 13.2442 90.1961 14.1721 90.8611 14.83C91.61 15.5657 92.5978 15.9552 93.7161 15.9552C93.8083 15.9552 93.9006 15.9526 93.9928 15.9473C95.4572 15.8568 96.3189 15.4157 96.6267 14.5994C96.9917 13.5678 96.5661 12.7905 96.2033 12.4721C96.1978 12.7384 96.1117 12.9678 95.9444 13.1563C95.6539 13.4852 95.1417 13.6589 94.4644 13.6589C93.5889 13.6589 92.9378 13.1126 92.6772 12.1589C92.4283 11.2778 92.4617 7.75364 92.4828 5.64732L92.49 4.71574H89.8733Z" fill="url(#paint0_linear_1129_357)"/>
<defs>
<linearGradient id="paint0_linear_1129_357" x1="0.11499" y1="10.0568" x2="100.115" y2="10.0568" gradientUnits="userSpaceOnUse">
<stop stop-color="#EE2224"/>
<stop offset="1" stop-color="#F16521"/>
</linearGradient>
</defs>
</svg>
