<svg width="25" height="24" viewBox="0 0 25 24" fill="none" xmlns="http://www.w3.org/2000/svg">
<rect width="24" height="24" transform="translate(0.5)" fill="white"/>
<path d="M18.4694 17.1428C15.6616 20.5271 10.6724 20.9678 7.32513 18.1281C3.97884 15.2885 3.5431 10.2425 6.35086 6.85723C9.15862 3.47291 14.1479 3.03223 17.4951 5.87189C18.3723 6.6159 19.0485 7.51158 19.5201 8.48834" stroke="#4A4A4A" stroke-width="0.7" stroke-linecap="round" stroke-linejoin="round"/>
<path d="M17.9836 9.10251L20.5 10.0363V7.49048" stroke="#4A4A4A" stroke-width="0.7" stroke-linecap="round" stroke-linejoin="round"/>
<path d="M8.5 6V7.09091H10.5C11.352 7.09091 12.47 7.65709 12.86 8.72727H8.5V9.81818H12.985C12.83 11.2418 11.487 12 10.5 12H8.5V13.3473L13.625 18H15.1875L9.781 13.0909H10.5C12.117 13.0909 13.837 11.7873 13.985 9.81818H16.5V8.72727H13.906C13.755 8.08145 13.43 7.52945 13 7.09091H16.5V6H8.5Z" fill="#4A4A4A"/>
</svg>
