<svg width="16" height="16" viewBox="0 0 16 16" fill="none" xmlns="http://www.w3.org/2000/svg">
<path d="M8 0C6.41775 0 4.87103 0.469192 3.55544 1.34824C2.23985 2.22729 1.21447 3.47672 0.608967 4.93853C0.00346625 6.40034 -0.15496 8.00887 0.153721 9.56072C0.462403 11.1126 1.22433 12.538 2.34315 13.6568C3.46197 14.7757 4.88743 15.5376 6.43928 15.8463C7.99113 16.155 9.59966 15.9965 11.0615 15.391C12.5233 14.7855 13.7727 13.7601 14.6518 12.4446C15.5308 11.129 16 9.58225 16 8C16 5.87827 15.1571 3.84344 13.6569 2.34314C12.1566 0.842855 10.1217 0 8 0ZM10.94 4.5H12C12.1326 4.5 12.2598 4.55268 12.3536 4.64645C12.4473 4.74021 12.5 4.86739 12.5 5C12.5 5.13261 12.4473 5.25978 12.3536 5.35355C12.2598 5.44732 12.1326 5.5 12 5.5H11.13V5.595C11.1373 5.99572 11.0654 6.39393 10.9184 6.76681C10.7715 7.13968 10.5524 7.47987 10.2736 7.76788C9.99493 8.05589 9.6621 8.28604 9.29425 8.44513C8.92639 8.60423 8.53075 8.68914 8.13 8.695H7.13L10.54 12.725C10.6474 12.8516 10.7001 13.0158 10.6865 13.1813C10.6729 13.3468 10.5941 13.5001 10.4675 13.6075C10.3409 13.7149 10.1767 13.7676 10.0112 13.754C9.84573 13.7404 9.69241 13.6616 9.585 13.535L5.315 8.47C5.2362 8.37757 5.18604 8.26417 5.17066 8.14369C5.15527 8.02321 5.17533 7.90085 5.22837 7.79158C5.28141 7.68231 5.36514 7.59087 5.46933 7.52843C5.57351 7.46599 5.69363 7.43526 5.815 7.44H8.17C8.64525 7.42562 9.09538 7.22327 9.42159 6.87737C9.74781 6.53147 9.92346 6.07027 9.91 5.595V5.495H5.41C5.27739 5.495 5.15022 5.44232 5.05645 5.34855C4.96268 5.25478 4.91 5.12761 4.91 4.995C4.91 4.86239 4.96268 4.73521 5.05645 4.64145C5.15022 4.54768 5.27739 4.495 5.41 4.495H9.57C9.41598 4.26715 9.20912 4.07994 8.96708 3.94934C8.72504 3.81874 8.455 3.74864 8.18 3.745H5.375C5.20924 3.745 5.05027 3.67915 4.93306 3.56194C4.81585 3.44473 4.75 3.28576 4.75 3.12C4.75 2.95424 4.81585 2.79527 4.93306 2.67806C5.05027 2.56085 5.20924 2.495 5.375 2.495H12C12.1326 2.495 12.2598 2.54768 12.3536 2.64145C12.4473 2.73521 12.5 2.86239 12.5 2.995C12.5 3.12761 12.4473 3.25478 12.3536 3.34855C12.2598 3.44232 12.1326 3.495 12 3.495H10.34C10.6017 3.78908 10.8053 4.1301 10.94 4.5Z" fill="#F16521"/>
</svg>
