<svg width="25" height="24" viewBox="0 0 25 24" fill="none" xmlns="http://www.w3.org/2000/svg">
<rect width="24" height="24" transform="translate(0.25)" fill="white"/>
<path fill-rule="evenodd" clip-rule="evenodd" d="M5.05 16.6667C4.6084 16.6667 4.25 16.332 4.25 15.92V10.7467C4.25 10.3347 4.6084 10 5.05 10V16.6667ZM13.85 10C14.2916 10 14.65 10.3347 14.65 10.7467V15.92C14.65 16.332 14.2916 16.6667 13.85 16.6667V10ZM15.45 10.6667H17.3724C17.5108 10.6667 17.6388 10.7533 17.7084 10.8927L18.6124 12.7153C18.6828 12.8553 18.8108 12.942 18.9484 12.942H19.862C20.0764 12.942 20.25 13.1447 20.25 13.3953V16.2133C20.25 16.464 20.0764 16.6667 19.862 16.6667H18.382L15.45 10.6667ZM17.85 17C17.85 17.552 17.3124 18 16.65 18C15.9876 18 15.45 17.552 15.45 17C15.45 16.448 15.9876 16 16.65 16C17.3124 16 17.85 16.448 17.85 17ZM9.05 17C9.05 17.552 8.5124 18 7.85 18C7.1876 18 6.65 17.552 6.65 17C6.65 16.448 7.1876 16 7.85 16C8.5124 16 9.05 16.448 9.05 17Z" stroke="#4A4A4A" stroke-width="0.7"/>
<path d="M18.6502 13.3333H15.4502V12" stroke="#4A4A4A" stroke-width="0.7"/>
<mask id="mask0_660_11830" style="mask-type:alpha" maskUnits="userSpaceOnUse" x="4" y="10" width="17" height="8">
<path d="M4.25 18H20.25V10H4.25V18Z" fill="white"/>
</mask>
<g mask="url(#mask0_660_11830)">
<path d="M13.0499 16.6667H9.04993M17.8499 15.3334H20.2499V14.6667H17.8499V15.3334ZM5.04993 16.6667H6.64993H5.04993Z" stroke="#4A4A4A" stroke-width="0.7"/>
</g>
<path fill-rule="evenodd" clip-rule="evenodd" d="M9.23664 10L8.25024 9.23867L8.62784 8.94733L9.23664 9.41733L11.0726 8L11.4502 8.29133L9.23664 10Z" fill="#333333"/>
<mask id="mask1_660_11830" style="mask-type:alpha" maskUnits="userSpaceOnUse" x="5" y="6" width="9" height="8">
<path d="M5.84985 6H13.0499V13.3333H5.84985V6Z" fill="white"/>
</mask>
<g mask="url(#mask1_660_11830)">
<path fill-rule="evenodd" clip-rule="evenodd" d="M6.37225 7.37726C6.35945 7.71392 6.36665 8.50459 6.62985 9.41192C7.07945 10.9559 8.02745 12.1133 9.44985 12.8526C10.8762 12.1106 11.8258 10.9486 12.2738 9.39792C12.5346 8.49392 12.541 7.71126 12.5282 7.37792C11.9778 7.30126 10.5034 7.05459 9.44985 6.48726C8.39625 7.05459 6.92185 7.30059 6.37225 7.37659V7.37726ZM9.44985 13.3333C9.40585 13.3333 9.36185 13.3233 9.32185 13.3039C7.71785 12.5133 6.61225 11.1999 6.12345 9.50459C5.75705 8.23326 5.86265 7.20659 5.86745 7.16326C5.87865 7.05926 5.97225 6.97659 6.09305 6.96326C6.11305 6.96126 8.12425 6.73659 9.30345 6.03926C9.39145 5.98659 9.50825 5.98659 9.59705 6.03926C10.7778 6.73859 12.7858 6.96126 12.8066 6.96326C12.9266 6.97659 13.021 7.05926 13.0322 7.16326C13.037 7.20659 13.1426 8.23326 12.7762 9.50459C12.2858 11.1999 11.1802 12.5139 9.57785 13.3039C9.53785 13.3239 9.49385 13.3333 9.44985 13.3333Z" fill="#333333"/>
</g>
</svg>
