<svg width="25" height="24" viewBox="0 0 25 24" fill="none" xmlns="http://www.w3.org/2000/svg">
<rect width="24" height="24" transform="translate(0.75)" fill="white"/>
<path fill-rule="evenodd" clip-rule="evenodd" d="M4.80609 6.97768C4.78009 7.24463 4.74809 7.66232 4.75009 8.18695C4.75309 9.04926 4.84909 10.3874 5.28209 11.8669C6.35309 15.5267 8.8651 18.2611 12.7501 20C16.6501 18.2543 19.1651 15.5074 20.2301 11.8307C20.8701 9.616 20.7701 7.712 20.6941 6.97432C18.3111 6.28042 16.2441 5.49221 14.9021 4.93979C13.9031 4.52884 13.1621 4.192 12.7541 4C12.3501 4.19368 11.6141 4.53558 10.6201 4.94821C9.2821 5.504 7.2151 6.29389 4.80609 6.97768V6.97768Z" stroke="#4A4A4A" stroke-width="0.7"/>
<path fill-rule="evenodd" clip-rule="evenodd" d="M11.8981 12.0725L10.6741 10.8935L9.32211 12.0927H9.32111L11.8711 14.3529L16.1791 10.5348L15.1941 9.64722L11.8981 12.0725Z" fill="#4A4A4A"/>
</svg>
