<svg width="18" height="18" viewBox="0 0 18 18" fill="none" xmlns="http://www.w3.org/2000/svg">
<path fill-rule="evenodd" clip-rule="evenodd" d="M5.4696 2.05333C4.4992 2.05333 3.6072 2.48889 2.9576 3.28C2.3 4.08267 1.9368 5.192 1.9368 6.40444C1.9368 7.68444 2.3608 8.82756 3.3088 10.1138C4.2248 11.3573 5.5888 12.6631 7.1672 14.176L7.1704 14.1778C7.7224 14.7067 8.3472 15.3067 8.9984 15.9467C9.6544 15.3049 10.28 14.7049 10.8336 14.1751C12.412 12.6631 13.7752 11.3573 14.692 10.1138C15.64 8.82756 16.0632 7.68444 16.0632 6.40444C16.0632 5.192 15.7 4.08267 15.0416 3.28C14.3936 2.48889 13.5008 2.05333 12.5304 2.05333C11.8192 2.05333 11.1664 2.30756 10.5896 2.80889C10.076 3.25511 9.7176 3.82044 9.508 4.21511C9.4 4.41867 9.2104 4.53956 9 4.53956C8.7896 4.53956 8.6 4.41867 8.492 4.21511C8.2824 3.82044 7.924 3.25511 7.4104 2.80889C6.8344 2.30756 6.1808 2.05333 5.4696 2.05333ZM9 17C8.772 17 8.552 16.9076 8.3816 16.7387C7.7352 16.1031 7.112 15.5067 6.5624 14.9796L6.5592 14.9769C4.9472 13.4329 3.5552 12.0996 2.5872 10.7867C1.504 9.31822 1 7.92444 1 6.40444C1 4.92711 1.4512 3.56356 2.2696 2.56622C3.0976 1.55644 4.2344 1 5.4696 1C6.3936 1 7.24 1.32889 7.984 1.97511C8.36 2.30222 8.7 2.70222 9 3.168C9.3 2.70222 9.64 2.30222 10.016 1.97511C10.7616 1.32889 11.608 1 12.5312 1C13.7664 1 14.9032 1.55644 15.7312 2.56622C16.5504 3.56356 17 4.92711 17 6.40444C17 7.92533 16.496 9.31822 15.4128 10.7867C14.4448 12.0996 13.0528 13.4329 11.4408 14.9769C10.8904 15.504 10.2664 16.1022 9.6184 16.7387C9.4472 16.9076 9.228 17 9 17Z" fill="black" stroke="black" stroke-width="0.1"/>
</svg>
